<svg width="174" height="87" viewBox="0 0 174 87" fill="none" xmlns="http://www.w3.org/2000/svg">
<rect x="108.5" y="39.5" width="25" height="25" stroke="black" stroke-width="7"/>
<rect x="105" y="27" width="26" height="7" transform="rotate(-90 105 27)" fill="black"/>
<rect x="105" y="1" width="68" height="7" fill="black"/>
<rect x="166" y="69" width="68" height="7" transform="rotate(-90 166 69)" fill="black"/>
<rect x="146" y="62" width="27" height="7" fill="black"/>
<path d="M8.19034 69V1.36363H49.0099V8.62926H16.3807V31.483H46.8963V38.7486H16.3807V61.7344H49.5384V69H8.19034ZM90.6473 18.2727C90.251 14.9261 88.6437 12.3281 85.8255 10.4787C83.0073 8.62926 79.5507 7.70454 75.4555 7.70454C72.4612 7.70454 69.8412 8.18892 67.5954 9.15767C65.3717 10.1264 63.6323 11.4584 62.3774 13.1538C61.1444 14.8491 60.5279 16.7756 60.5279 18.9332C60.5279 20.7386 60.9573 22.2908 61.8159 23.5898C62.6966 24.8668 63.8195 25.9347 65.1845 26.7933C66.5496 27.63 67.9807 28.3235 69.4779 28.8739C70.975 29.4023 72.3511 29.8317 73.6061 30.1619L80.4754 32.0114C82.2367 32.4737 84.1963 33.1122 86.3539 33.9268C88.5336 34.7415 90.6142 35.8533 92.5958 37.2624C94.5993 38.6495 96.2506 40.4329 97.5496 42.6126C98.8486 44.7923 99.4981 47.4673 99.4981 50.6378C99.4981 54.2926 98.5404 57.5952 96.6249 60.5455C94.7314 63.4957 91.9573 65.8406 88.3024 67.5799C84.6696 69.3192 80.2552 70.1889 75.0592 70.1889C70.2154 70.1889 66.0212 69.4073 62.4764 67.8441C58.9537 66.2809 56.1796 64.1012 54.154 61.305C52.1505 58.5089 51.0166 55.2614 50.7524 51.5625H59.2069C59.4271 54.1165 60.2858 56.2301 61.7829 57.9034C63.3021 59.5547 65.2176 60.7876 67.5294 61.6023C69.8632 62.3949 72.3731 62.7912 75.0592 62.7912C78.1856 62.7912 80.9928 62.2848 83.4807 61.272C85.9686 60.2372 87.9392 58.8061 89.3923 56.9787C90.8454 55.1293 91.572 52.9716 91.572 50.5057C91.572 48.2599 90.9445 46.4325 89.6895 45.0234C88.4345 43.6143 86.7833 42.4695 84.7357 41.5888C82.6881 40.7081 80.4754 39.9375 78.0975 39.277L69.7751 36.8991C64.491 35.38 60.3078 33.2113 57.2254 30.3931C54.143 27.5749 52.6018 23.8871 52.6018 19.3295C52.6018 15.5426 53.6256 12.2401 55.6732 9.42188C57.7428 6.58167 60.5169 4.37997 63.9956 2.81676C67.4963 1.23153 71.4044 0.438918 75.7197 0.438918C80.0791 0.438918 83.9541 1.22052 87.3447 2.78373C90.7353 4.32492 93.4214 6.43856 95.4029 9.12464C97.4065 11.8107 98.4633 14.8601 98.5734 18.2727H90.6473Z" fill="black"/>
<path d="M7.96839 84V74.1818H14.354V75.6728H9.74698V78.3382H14.0233V79.8292H9.74698V82.5091H14.3924V84H7.96839ZM21.5719 76.8809C21.5271 76.4622 21.3385 76.1362 21.0062 75.9029C20.677 75.6696 20.2487 75.5529 19.7214 75.5529C19.3506 75.5529 19.0326 75.6088 18.7673 75.7207C18.5021 75.8326 18.2991 75.9844 18.1585 76.1761C18.0179 76.3679 17.946 76.5868 17.9428 76.8329C17.9428 77.0375 17.9891 77.2148 18.0818 77.3651C18.1777 77.5153 18.3071 77.6431 18.4701 77.7486C18.6331 77.8509 18.8137 77.9371 19.0118 78.0075C19.21 78.0778 19.4097 78.1369 19.6111 78.1848L20.5315 78.415C20.9023 78.5012 21.2586 78.6179 21.6006 78.7649C21.9458 78.9119 22.2542 79.0973 22.5259 79.321C22.8007 79.5447 23.0181 79.8148 23.1779 80.1312C23.3377 80.4476 23.4176 80.8184 23.4176 81.2434C23.4176 81.8187 23.2705 82.3253 22.9765 82.7631C22.6825 83.1978 22.2574 83.5382 21.7013 83.7843C21.1484 84.0272 20.4788 84.1486 19.6926 84.1486C18.9287 84.1486 18.2656 84.0304 17.7031 83.7939C17.1438 83.5574 16.7059 83.2122 16.3895 82.7583C16.0763 82.3045 15.9069 81.7516 15.8813 81.0996H17.6312C17.6567 81.4416 17.7622 81.726 17.9476 81.9529C18.1329 82.1799 18.3742 82.3493 18.6715 82.4611C18.9719 82.573 19.3075 82.6289 19.6782 82.6289C20.0649 82.6289 20.4037 82.5714 20.6945 82.4563C20.9886 82.3381 21.2187 82.1751 21.3849 81.9673C21.5511 81.7564 21.6358 81.5103 21.639 81.229C21.6358 80.9734 21.5607 80.7624 21.4136 80.5962C21.2666 80.4268 21.0605 80.2862 20.7952 80.1744C20.5331 80.0593 20.2263 79.957 19.8748 79.8675L18.7578 79.5799C17.9492 79.3722 17.31 79.0574 16.8401 78.6355C16.3735 78.2104 16.1402 77.6463 16.1402 76.9432C16.1402 76.3647 16.2968 75.8581 16.61 75.4235C16.9264 74.9888 17.3563 74.6516 17.8996 74.4119C18.4429 74.169 19.0582 74.0476 19.7453 74.0476C20.4421 74.0476 21.0525 74.169 21.5766 74.4119C22.104 74.6516 22.5179 74.9856 22.8183 75.4139C23.1187 75.839 23.2737 76.3279 23.2833 76.8809H21.5719ZM33.8438 79.0909C33.8438 80.1488 33.6456 81.0549 33.2493 81.8091C32.8562 82.5602 32.3193 83.1355 31.6385 83.535C30.961 83.9345 30.1923 84.1342 29.3326 84.1342C28.4728 84.1342 27.7026 83.9345 27.0219 83.535C26.3443 83.1323 25.8074 82.5554 25.4111 81.8043C25.0179 81.0501 24.8214 80.1456 24.8214 79.0909C24.8214 78.033 25.0179 77.1286 25.4111 76.3775C25.8074 75.6232 26.3443 75.0463 27.0219 74.6468C27.7026 74.2473 28.4728 74.0476 29.3326 74.0476C30.1923 74.0476 30.961 74.2473 31.6385 74.6468C32.3193 75.0463 32.8562 75.6232 33.2493 76.3775C33.6456 77.1286 33.8438 78.033 33.8438 79.0909ZM32.0556 79.0909C32.0556 78.3462 31.9389 77.7182 31.7056 77.2069C31.4755 76.6923 31.1559 76.304 30.7468 76.0419C30.3377 75.7766 29.8663 75.644 29.3326 75.644C28.7988 75.644 28.3274 75.7766 27.9183 76.0419C27.5092 76.304 27.188 76.6923 26.9547 77.2069C26.7246 77.7182 26.6096 78.3462 26.6096 79.0909C26.6096 79.8356 26.7246 80.4652 26.9547 80.9798C27.188 81.4911 27.5092 81.8794 27.9183 82.1447C28.3274 82.4068 28.7988 82.5378 29.3326 82.5378C29.8663 82.5378 30.3377 82.4068 30.7468 82.1447C31.1559 81.8794 31.4755 81.4911 31.7056 80.9798C31.9389 80.4652 32.0556 79.8356 32.0556 79.0909ZM35.5928 84V74.1818H41.8825V75.6728H37.3714V78.3382H41.4511V79.8292H37.3714V84H35.5928ZM43.139 75.6728V74.1818H50.9724V75.6728H47.9378V84H46.1736V75.6728H43.139ZM54.6163 84L51.8453 74.1818H53.7581L55.5271 81.3968H55.6182L57.5071 74.1818H59.2473L61.1409 81.4016H61.2272L62.9962 74.1818H64.9091L62.1381 84H60.3835L58.4179 77.111H58.3412L56.3709 84H54.6163ZM66.5478 84H64.6494L68.1059 74.1818H70.3015L73.7628 84H71.8644L69.242 76.1953H69.1653L66.5478 84ZM66.6101 80.1504H71.7877V81.579H66.6101V80.1504ZM75.1235 84V74.1818H78.8053C79.5596 74.1818 80.1924 74.3129 80.7038 74.5749C81.2183 74.837 81.6066 75.2045 81.8687 75.6776C82.134 76.1474 82.2666 76.6955 82.2666 77.3219C82.2666 77.9515 82.1324 78.498 81.8639 78.9615C81.5987 79.4217 81.2071 79.7781 80.6894 80.0305C80.1716 80.2798 79.5356 80.4045 78.7814 80.4045H76.159V78.9279H78.5417C78.9827 78.9279 79.3439 78.8672 79.6251 78.7457C79.9064 78.6211 80.1141 78.4405 80.2483 78.204C80.3858 77.9643 80.4545 77.6703 80.4545 77.3219C80.4545 76.9735 80.3858 76.6763 80.2483 76.4302C80.1109 76.1809 79.9016 75.9924 79.6203 75.8645C79.3391 75.7335 78.9763 75.668 78.5321 75.668H76.9021V84H75.1235ZM80.1956 79.5511L82.6262 84H80.6414L78.254 79.5511H80.1956ZM83.9713 84V74.1818H90.3569V75.6728H85.7499V78.3382H90.0262V79.8292H85.7499V82.5091H90.3953V84H83.9713ZM100.991 76.8809C100.946 76.4622 100.758 76.1362 100.425 75.9029C100.096 75.6696 99.6677 75.5529 99.1404 75.5529C98.7696 75.5529 98.4516 75.6088 98.1864 75.7207C97.9211 75.8326 97.7181 75.9844 97.5775 76.1761C97.4369 76.3679 97.365 76.5868 97.3618 76.8329C97.3618 77.0375 97.4081 77.2148 97.5008 77.3651C97.5967 77.5153 97.7261 77.6431 97.8891 77.7486C98.0521 77.8509 98.2327 77.9371 98.4309 78.0075C98.629 78.0778 98.8288 78.1369 99.0301 78.1848L99.9506 78.415C100.321 78.5012 100.678 78.6179 101.02 78.7649C101.365 78.9119 101.673 79.0973 101.945 79.321C102.22 79.5447 102.437 79.8148 102.597 80.1312C102.757 80.4476 102.837 80.8184 102.837 81.2434C102.837 81.8187 102.69 82.3253 102.396 82.7631C102.101 83.1978 101.676 83.5382 101.12 83.7843C100.567 84.0272 99.8978 84.1486 99.1116 84.1486C98.3478 84.1486 97.6846 84.0304 97.1221 83.7939C96.5628 83.5574 96.1249 83.2122 95.8085 82.7583C95.4953 82.3045 95.3259 81.7516 95.3004 81.0996H97.0502C97.0757 81.4416 97.1812 81.726 97.3666 81.9529C97.552 82.1799 97.7933 82.3493 98.0905 82.4611C98.3909 82.573 98.7265 82.6289 99.0972 82.6289C99.484 82.6289 99.8227 82.5714 100.114 82.4563C100.408 82.3381 100.638 82.1751 100.804 81.9673C100.97 81.7564 101.055 81.5103 101.058 81.229C101.055 80.9734 100.98 80.7624 100.833 80.5962C100.686 80.4268 100.48 80.2862 100.214 80.1744C99.9522 80.0593 99.6454 79.957 99.2938 79.8675L98.1768 79.5799C97.3682 79.3722 96.729 79.0574 96.2592 78.6355C95.7925 78.2104 95.5592 77.6463 95.5592 76.9432C95.5592 76.3647 95.7158 75.8581 96.0291 75.4235C96.3455 74.9888 96.7753 74.6516 97.3186 74.4119C97.862 74.169 98.4772 74.0476 99.1643 74.0476C99.8611 74.0476 100.472 74.169 100.996 74.4119C101.523 74.6516 101.937 74.9856 102.237 75.4139C102.538 75.839 102.693 76.3279 102.702 76.8809H100.991ZM113.263 79.0909C113.263 80.1488 113.065 81.0549 112.668 81.8091C112.275 82.5602 111.738 83.1355 111.058 83.535C110.38 83.9345 109.611 84.1342 108.752 84.1342C107.892 84.1342 107.122 83.9345 106.441 83.535C105.763 83.1323 105.226 82.5554 104.83 81.8043C104.437 81.0501 104.24 80.1456 104.24 79.0909C104.24 78.033 104.437 77.1286 104.83 76.3775C105.226 75.6232 105.763 75.0463 106.441 74.6468C107.122 74.2473 107.892 74.0476 108.752 74.0476C109.611 74.0476 110.38 74.2473 111.058 74.6468C111.738 75.0463 112.275 75.6232 112.668 76.3775C113.065 77.1286 113.263 78.033 113.263 79.0909ZM111.475 79.0909C111.475 78.3462 111.358 77.7182 111.125 77.2069C110.895 76.6923 110.575 76.304 110.166 76.0419C109.757 75.7766 109.285 75.644 108.752 75.644C108.218 75.644 107.746 75.7766 107.337 76.0419C106.928 76.304 106.607 76.6923 106.374 77.2069C106.144 77.7182 106.029 78.3462 106.029 79.0909C106.029 79.8356 106.144 80.4652 106.374 80.9798C106.607 81.4911 106.928 81.8794 107.337 82.1447C107.746 82.4068 108.218 82.5378 108.752 82.5378C109.285 82.5378 109.757 82.4068 110.166 82.1447C110.575 81.8794 110.895 81.4911 111.125 80.9798C111.358 80.4652 111.475 79.8356 111.475 79.0909ZM115.012 84V74.1818H116.79V82.5091H121.115V84H115.012ZM128.915 74.1818H130.693V80.5962C130.693 81.2994 130.527 81.9178 130.195 82.4515C129.866 82.9853 129.402 83.4023 128.805 83.7028C128.207 84 127.509 84.1486 126.71 84.1486C125.907 84.1486 125.207 84 124.61 83.7028C124.012 83.4023 123.549 82.9853 123.22 82.4515C122.89 81.9178 122.726 81.2994 122.726 80.5962V74.1818H124.504V80.4476C124.504 80.8567 124.594 81.2211 124.773 81.5407C124.955 81.8603 125.211 82.1112 125.54 82.2933C125.869 82.4723 126.259 82.5618 126.71 82.5618C127.16 82.5618 127.55 82.4723 127.879 82.2933C128.212 82.1112 128.467 81.8603 128.646 81.5407C128.825 81.2211 128.915 80.8567 128.915 80.4476V74.1818ZM132.263 75.6728V74.1818H140.096V75.6728H137.062V84H135.297V75.6728H132.263ZM143.452 74.1818V84H141.674V74.1818H143.452ZM154.219 79.0909C154.219 80.1488 154.021 81.0549 153.624 81.8091C153.231 82.5602 152.694 83.1355 152.014 83.535C151.336 83.9345 150.567 84.1342 149.708 84.1342C148.848 84.1342 148.078 83.9345 147.397 83.535C146.719 83.1323 146.183 82.5554 145.786 81.8043C145.393 81.0501 145.197 80.1456 145.197 79.0909C145.197 78.033 145.393 77.1286 145.786 76.3775C146.183 75.6232 146.719 75.0463 147.397 74.6468C148.078 74.2473 148.848 74.0476 149.708 74.0476C150.567 74.0476 151.336 74.2473 152.014 74.6468C152.694 75.0463 153.231 75.6232 153.624 76.3775C154.021 77.1286 154.219 78.033 154.219 79.0909ZM152.431 79.0909C152.431 78.3462 152.314 77.7182 152.081 77.2069C151.851 76.6923 151.531 76.304 151.122 76.0419C150.713 75.7766 150.241 75.644 149.708 75.644C149.174 75.644 148.703 75.7766 148.294 76.0419C147.884 76.304 147.563 76.6923 147.33 77.2069C147.1 77.7182 146.985 78.3462 146.985 79.0909C146.985 79.8356 147.1 80.4652 147.33 80.9798C147.563 81.4911 147.884 81.8794 148.294 82.1447C148.703 82.4068 149.174 82.5378 149.708 82.5378C150.241 82.5378 150.713 82.4068 151.122 82.1447C151.531 81.8794 151.851 81.4911 152.081 80.9798C152.314 80.4652 152.431 79.8356 152.431 79.0909ZM164.036 74.1818V84H162.454L157.828 77.3123H157.747V84H155.968V74.1818H157.56L162.181 80.8743H162.267V74.1818H164.036ZM171.378 76.8809C171.333 76.4622 171.144 76.1362 170.812 75.9029C170.483 75.6696 170.054 75.5529 169.527 75.5529C169.156 75.5529 168.838 75.6088 168.573 75.7207C168.308 75.8326 168.105 75.9844 167.964 76.1761C167.824 76.3679 167.752 76.5868 167.748 76.8329C167.748 77.0375 167.795 77.2148 167.887 77.3651C167.983 77.5153 168.113 77.6431 168.276 77.7486C168.439 77.8509 168.619 77.9371 168.818 78.0075C169.016 78.0778 169.215 78.1369 169.417 78.1848L170.337 78.415C170.708 78.5012 171.064 78.6179 171.406 78.7649C171.751 78.9119 172.06 79.0973 172.332 79.321C172.606 79.5447 172.824 79.8148 172.984 80.1312C173.143 80.4476 173.223 80.8184 173.223 81.2434C173.223 81.8187 173.076 82.3253 172.782 82.7631C172.488 83.1978 172.063 83.5382 171.507 83.7843C170.954 84.0272 170.285 84.1486 169.498 84.1486C168.734 84.1486 168.071 84.0304 167.509 83.7939C166.949 83.5574 166.512 83.2122 166.195 82.7583C165.882 82.3045 165.713 81.7516 165.687 81.0996H167.437C167.462 81.4416 167.568 81.726 167.753 81.9529C167.939 82.1799 168.18 82.3493 168.477 82.4611C168.778 82.573 169.113 82.6289 169.484 82.6289C169.871 82.6289 170.209 82.5714 170.5 82.4563C170.794 82.3381 171.024 82.1751 171.191 81.9673C171.357 81.7564 171.441 81.5103 171.445 81.229C171.441 80.9734 171.366 80.7624 171.219 80.5962C171.072 80.4268 170.866 80.2862 170.601 80.1744C170.339 80.0593 170.032 79.957 169.68 79.8675L168.563 79.5799C167.755 79.3722 167.116 79.0574 166.646 78.6355C166.179 78.2104 165.946 77.6463 165.946 76.9432C165.946 76.3647 166.103 75.8581 166.416 75.4235C166.732 74.9888 167.162 74.6516 167.705 74.4119C168.249 74.169 168.864 74.0476 169.551 74.0476C170.248 74.0476 170.858 74.169 171.382 74.4119C171.91 74.6516 172.324 74.9856 172.624 75.4139C172.924 75.839 173.079 76.3279 173.089 76.8809H171.378Z" fill="black"/>
</svg>
