<?xml version="1.0" standalone="no"?>
<!DOCTYPE svg PUBLIC "-//W3C//DTD SVG 20010904//EN"
 "http://www.w3.org/TR/2001/REC-SVG-20010904/DTD/svg10.dtd">
<svg version="1.0" xmlns="http://www.w3.org/2000/svg"
 width="415.000000pt" height="270.000000pt" viewBox="0 0 415.000000 270.000000"
 preserveAspectRatio="xMidYMid meet">

<g transform="translate(0.000000,270.000000) scale(0.100000,-0.100000)"
fill="#000000" stroke="none">
<path d="M1660 2151 c-399 -132 -586 -261 -746 -516 -17 -27 -13 -25 36 16
179 151 393 254 635 309 55 12 107 26 115 30 13 7 120 189 120 205 0 8 -9 6
-160 -44z"/>
<path d="M1451 1785 c-205 -45 -425 -158 -567 -292 -45 -43 -59 -67 -125 -221
-55 -128 -77 -169 -84 -158 -5 7 -73 129 -150 270 l-140 256 -189 0 -189 0 61
-64 62 -64 0 -453 0 -453 -62 -63 -62 -63 204 0 204 0 -57 58 -57 58 2 353 3
353 136 -244 136 -243 -23 -68 c-13 -37 -32 -100 -43 -140 l-20 -72 41 47 c31
36 49 72 74 149 58 181 192 425 298 544 l35 40 1 -361 0 -362 -61 -56 -60 -56
368 0 367 0 -47 48 -48 48 20 47 20 47 114 0 113 0 16 -47 15 -48 -44 -46 -44
-46 353 -7 c206 -4 366 -3 384 2 142 43 212 178 153 300 -24 48 -52 69 -217
160 -61 33 -110 68 -119 83 -22 36 -10 75 29 95 50 26 93 13 154 -47 l52 -52
51 79 c34 54 46 81 38 85 -25 14 -217 32 -288 27 -91 -6 -148 -33 -189 -89
-41 -58 -47 -113 -20 -178 29 -67 64 -96 204 -170 144 -77 164 -102 134 -166
-22 -48 -100 -70 -151 -44 -12 6 -45 34 -73 61 l-52 50 -25 -43 c-14 -24 -33
-61 -43 -81 -10 -21 -21 -38 -25 -38 -24 0 -77 110 -185 384 l-122 311 -62 0
-62 0 -126 -313 c-83 -205 -138 -326 -158 -350 l-30 -36 -42 45 -41 44 -1 484
c0 449 1 485 18 498 53 44 237 160 297 189 57 28 64 34 40 33 -17 0 -59 -7
-94 -14z m198 -920 c17 -44 31 -83 31 -87 0 -5 -31 -8 -70 -8 -38 0 -70 1 -70
3 0 2 12 32 26 68 15 35 30 75 35 88 5 13 11 22 14 20 2 -3 18 -40 34 -84z"/>
<path d="M1693 1671 c-88 -23 -133 -80 -133 -169 0 -79 37 -136 105 -162 34
-13 144 -16 193 -6 l32 8 0 94 0 94 -70 0 -70 0 0 -30 c0 -25 4 -30 25 -30 23
0 25 -4 25 -41 l0 -42 -47 6 c-83 9 -126 85 -92 161 19 42 67 60 142 54 l65
-6 4 30 c3 16 0 32 -5 35 -16 10 -140 13 -174 4z"/>
<path d="M2532 1661 c-59 -28 -86 -87 -80 -177 7 -105 61 -156 168 -156 76 0
117 23 148 82 19 36 23 57 20 107 -4 67 -21 100 -71 137 -39 29 -130 32 -185
7z m149 -83 c44 -71 5 -188 -63 -188 -55 0 -85 54 -75 136 6 59 30 84 79 84
32 0 41 -5 59 -32z"/>
<path d="M3486 1669 c-85 -20 -126 -74 -126 -164 0 -119 67 -177 206 -177 116
0 114 -2 114 108 l0 94 -65 0 -65 0 0 -30 c0 -26 4 -30 26 -30 23 0 25 -3 22
-37 -3 -34 -6 -38 -33 -41 -38 -5 -89 22 -104 54 -14 31 -14 89 -1 115 6 10
24 26 40 34 33 17 122 20 151 5 17 -10 19 -7 19 28 0 36 -3 40 -31 46 -42 8
-105 6 -153 -5z"/>
<path d="M2060 1500 l0 -170 125 0 125 0 0 30 0 30 -80 0 -80 0 0 40 0 39 73
3 72 3 0 30 0 30 -72 3 -73 3 0 34 0 35 75 0 75 0 0 30 0 30 -120 0 -120 0 0
-170z"/>
<path d="M2940 1501 l0 -171 45 0 45 0 0 70 c0 60 2 70 18 70 9 0 22 -4 28 -8
16 -10 40 -61 49 -99 6 -32 8 -33 56 -33 l49 0 -11 28 c-6 15 -20 51 -31 80
-11 28 -24 52 -30 52 -5 0 4 13 21 29 37 35 42 85 12 122 -18 22 -27 24 -135
27 l-116 4 0 -171z m174 87 c17 -27 -5 -52 -48 -56 l-36 -3 0 41 0 41 36 -3
c22 -2 42 -10 48 -20z"/>
<path d="M3850 1500 l0 -170 125 0 125 0 0 30 0 30 -80 0 -80 0 0 40 0 40 70
0 70 0 0 35 0 35 -70 0 -70 0 0 35 0 35 75 0 75 0 0 30 0 30 -120 0 -120 0 0
-170z"/>
<path d="M2879 1212 c-79 -26 -143 -76 -190 -145 -53 -81 -73 -151 -67 -247 8
-139 81 -256 200 -321 61 -33 67 -34 173 -34 132 0 176 16 258 94 94 89 142
229 119 348 -27 132 -107 239 -219 290 -75 35 -195 41 -274 15z m187 -101
c119 -73 120 -449 1 -535 -38 -28 -104 -26 -144 2 -17 12 -41 45 -54 74 -20
47 -23 69 -24 183 0 156 12 205 65 257 32 32 44 38 81 38 26 0 57 -8 75 -19z"/>
<path d="M3408 1157 l52 -53 0 -262 0 -263 -46 -49 -47 -50 154 0 153 0 -52
53 -52 53 0 188 c0 109 4 186 9 184 5 -1 109 -124 231 -273 123 -148 227 -271
231 -273 5 -2 9 153 9 349 l0 353 47 48 47 48 -159 0 -159 0 52 -53 53 -53 -3
-145 -3 -144 -157 198 -158 197 -127 0 -127 0 52 -53z"/>
<path d="M60 170 c0 -104 16 -144 65 -160 46 -15 99 -6 125 22 17 19 20 36 20
120 l0 98 -30 0 -30 0 0 -89 c0 -96 -9 -115 -52 -109 -28 4 -36 30 -37 126
l-1 72 -30 0 -30 0 0 -80z"/>
<path d="M530 130 l0 -120 30 0 30 0 1 83 0 82 42 -82 41 -83 43 0 43 0 0 120
0 120 -30 0 -29 0 -3 -82 -3 -83 -39 83 -39 82 -44 0 -43 0 0 -120z"/>
<path d="M1040 130 l0 -120 30 0 30 0 0 120 0 120 -30 0 -30 0 0 -120z"/>
<path d="M1412 129 l40 -120 40 3 40 3 39 110 c21 61 39 113 39 118 0 4 -13 7
-29 7 -27 0 -31 -4 -46 -57 -45 -158 -40 -156 -75 -25 -22 82 -22 82 -55 82
l-34 0 41 -121z"/>
<path d="M1860 130 l0 -120 85 0 c78 0 85 2 85 20 0 18 -7 20 -55 20 -54 0
-55 0 -55 30 0 29 1 30 50 30 43 0 50 3 50 20 0 17 -7 20 -51 20 -49 0 -50 1
-47 28 3 25 7 27 56 30 44 3 52 6 52 23 0 17 -7 19 -85 19 l-85 0 0 -120z"/>
<path d="M2300 130 l0 -120 30 0 c29 0 30 2 30 46 0 41 2 45 23 42 16 -2 26
-15 37 -45 13 -39 18 -43 47 -43 l33 0 -21 52 c-11 29 -22 55 -24 59 -3 3 4
14 15 24 20 18 26 51 12 71 -15 23 -53 34 -116 34 l-66 0 0 -120z m124 60 c17
-17 -3 -40 -34 -40 -27 0 -30 3 -30 31 0 29 2 31 28 24 15 -3 31 -10 36 -15z"/>
<path d="M2772 240 c-29 -12 -44 -52 -32 -86 7 -17 26 -32 60 -46 69 -29 66
-53 -8 -53 -47 1 -52 -1 -52 -22 0 -39 91 -44 148 -7 16 11 22 24 22 53 0 43
-9 53 -63 71 -70 22 -57 66 16 55 36 -5 38 -4 35 17 -3 20 -9 23 -53 25 -27 1
-60 -2 -73 -7z"/>
<path d="M3160 130 l0 -120 30 0 30 0 0 120 0 120 -30 0 -30 0 0 -120z"/>
<path d="M3482 228 c2 -18 11 -24 36 -26 l32 -3 0 -95 0 -94 30 0 30 0 0 95 0
95 30 0 c25 0 30 4 30 25 0 25 0 25 -96 25 -93 0 -95 -1 -92 -22z"/>
<path d="M3886 203 c15 -27 36 -61 46 -78 10 -16 18 -49 18 -72 0 -41 1 -43
30 -43 29 0 30 2 30 45 0 35 9 60 41 112 23 38 43 71 46 76 2 4 -12 7 -32 7
-32 0 -37 -4 -57 -45 -12 -25 -25 -45 -28 -45 -3 0 -16 20 -28 45 -20 41 -25
45 -58 45 l-36 0 28 -47z"/>
</g>
</svg>
