<svg xmlns="http://www.w3.org/2000/svg" viewBox="0 0 405.44 66.92"><defs><style>.cls-1{fill:#00a886;}.cls-2{fill:#a7a9ac;}.cls-3{fill:#231f20;}</style></defs><title>15Asset 1</title><g id="Layer_2" data-name="Layer 2"><g id="Layer_1-2" data-name="Layer 1"><g id="Layer_1-3" data-name="Layer_1"><g id="_2313384598240" data-name=" 2313384598240"><path class="cls-1" d="M379.74,18a7.08,7.08,0,0,1,3.14.25c2.83.89,3.26,5.06,3.15,8.93l-5.82-.23V27l-.68,0,.22-9Zm16.64.69-.31,8.81h-2.21a27.76,27.76,0,0,0-.85-8.94l3.37.12Zm2.77,16.4a16.56,16.56,0,0,1-2.81,1.77c-4.93,3-12.37,2.33-14-8.49l3.61.14c0,.68-.08,1.33-.13,1.94l7.68.47c.09-.66.17-1.36.24-2.08h3.59l.4-11.43-5.2-.18c-2-5.38-6.6-9.38-16.17-7.83L375.75,4s-.52-2.74-2.5-3.54A5.86,5.86,0,0,0,370.79,0l-7.73.66s.07,1.11.14,1.57a1.81,1.81,0,0,0,.87,1.12c.11.13.84.19.84.19s.51,5,.8,5.93.84,1.86,1.68,2a9.52,9.52,0,0,0,1.25.2c0-.08-3.16,1.14-4.93.93-3.07,0-4.64-3.54-6.11-7.93l-8.24,1.44c2.2,9.5,6.89,15.91,14.35,15.91a9.49,9.49,0,0,0,2.88-.36l.44,3.53c-9.8.74-15.84,7.81-17.23,17.12a17.31,17.31,0,0,0-.16,4.41h-2.87v3.22h13.85a16.77,16.77,0,0,1-.07-3.32,10.82,10.82,0,0,1,10.82-10.83c5.23,13.71,17.36,15.5,26,11.11a17.42,17.42,0,0,0,3.87-2.14l1.48,2.46,2.75-1.65-6.3-10.51Z"/><polygon class="cls-2" points="0 17.48 5.8 17.48 5.8 36.58 5.89 36.58 12.82 27.66 19.67 27.66 11.35 37.62 20.71 49.96 13.34 49.96 5.89 39.13 5.8 39.13 5.8 49.96 0 49.96 0 17.48"/><path class="cls-2" d="M35.47,46c4.46,0,5.63-4,5.63-7.71,0-3.42-1.82-6.63-5.63-6.63s-5.58,3.29-5.58,6.63C29.89,42,31.05,46,35.47,46Zm0-18.84c6.63,0,11.7,4.46,11.7,11.82,0,6.41-4.29,11.52-11.7,11.52S23.82,45.37,23.82,39C23.82,31.6,28.89,27.14,35.47,27.14Z"/><polygon class="cls-2" points="53.14 17.48 58.95 17.48 58.95 49.96 53.14 49.96 53.14 17.48"/><path class="cls-2" d="M80.34,36.62c-.17-2.81-1.47-5.24-4.72-5.24s-4.89,2.25-5.15,5.24Zm3.9,12.09a15.32,15.32,0,0,1-7.67,1.77c-7.36,0-11.65-4.24-11.65-11.56,0-6.46,3.42-11.78,10.35-11.78,8.28,0,10.62,5.67,10.62,13.47H70.47c.26,3.59,2.77,5.63,6.36,5.63A15.09,15.09,0,0,0,84.24,44v4.72Z"/><path class="cls-2" d="M106.41,38.57c0-3.81-1.47-6.93-4.85-6.93-3.94,0-5.19,3.64-5.19,7.06,0,3,1.6,6.76,4.93,6.76,3.64,0,5.11-3.16,5.11-6.89Zm5.81-10.91V47.8c0,6.06-2.43,11.78-11.78,11.78a19.59,19.59,0,0,1-7.71-1.52l.47-4.93a16.8,16.8,0,0,0,6.5,1.94c6.41,0,6.71-4.8,6.71-8.66h-.08A8,8,0,0,1,99.4,50c-6.59,0-9.1-5.28-9.1-11.26,0-5.37,2.77-11.57,9.44-11.57a7.41,7.41,0,0,1,6.85,3.56h.09v-3Z"/><path class="cls-2" d="M119.62,18h5.81v5.54h-5.81Zm-3.55,37c3.12-.17,3.55-.78,3.55-4.24V27.66h5.81v24c0,3.16-.91,8-6.72,8a11.37,11.37,0,0,1-2.86-.35Z"/><path class="cls-2" d="M133,27.66h5.8V50H133ZM133,18h5.8v5.54H133Z"/><polygon class="cls-2" points="144.7 35.93 156.09 35.93 156.09 40.7 144.7 40.7 144.7 35.93"/><path class="cls-3" d="M162.32,17.48h2.73V31.6h.09A7.49,7.49,0,0,1,172,27.35c5.93,0,7.53,3.95,7.53,9.4V50h-2.72V36.8c0-3.82-.74-7.11-5.25-7.11-4.85,0-6.54,4.59-6.54,8.45V50h-2.73V17.48Z"/><path class="cls-3" d="M201.17,37.36c0-3.86-1.56-7.67-5.63-7.67s-6.5,4-6.5,7.67Zm1.35,11.91a18.13,18.13,0,0,1-6.41,1.21c-7.32,0-10.05-4.93-10.05-11.56s3.72-11.57,9.31-11.57c6.24,0,8.79,5,8.79,11V39.7H189c0,4.67,2.52,8.44,7.28,8.44a14.29,14.29,0,0,0,6.2-1.64v2.77Z"/><path class="cls-3" d="M210.66,27.87h2.73V50h-2.73ZM213.39,22h-2.73V18.34h2.73Z"/><path class="cls-3" d="M248.25,50V35.28c0-3.12-1.17-5.59-4.68-5.59-3,0-5.93,2.56-5.93,8.06V50h-2.73V35.28c0-3.12-1.17-5.59-4.68-5.59-3,0-5.93,2.56-5.93,8.06V50h-2.73V33.07c0-1.69,0-3.42-.17-5.2H224V31.6l.08,0c.87-1.52,2.17-4.29,6.89-4.29A5.56,5.56,0,0,1,236.86,32H237A7.41,7.41,0,0,1,244,27.35c4.46,0,7,3.12,7,7.41V50Z"/><path class="cls-3" d="M272.42,37.36c0-3.86-1.56-7.67-5.63-7.67s-6.5,4-6.5,7.67Zm1.34,11.91a18.09,18.09,0,0,1-6.41,1.21c-7.32,0-10.05-4.93-10.05-11.56s3.72-11.57,9.31-11.57c6.24,0,8.8,5,8.8,11V39.7H260.29c0,4.67,2.51,8.44,7.28,8.44a14.24,14.24,0,0,0,6.19-1.64v2.77Z"/><path class="cls-3" d="M281.9,32.81a40.44,40.44,0,0,0-.17-4.94h2.73v4.25h.08c1-2.47,2.86-4.77,5.68-4.77a8,8,0,0,1,1.9.26v2.86a7.26,7.26,0,0,0-2-.26c-4.33,0-5.5,4.85-5.5,8.84V50H281.9V32.81Z"/><path class="cls-3" d="M310.32,37.36c0-3.86-1.56-7.67-5.63-7.67s-6.5,4-6.5,7.67Zm1.34,11.91a18,18,0,0,1-6.41,1.21c-7.32,0-10.05-4.93-10.05-11.56s3.73-11.57,9.32-11.57c6.23,0,8.79,5,8.79,11V39.7H298.19c0,4.67,2.52,8.44,7.28,8.44a14.24,14.24,0,0,0,6.19-1.64v2.77Z"/><path class="cls-3" d="M319.8,32.81a40.44,40.44,0,0,0-.17-4.94h2.73v4.25h.09c1-2.47,2.85-4.77,5.67-4.77a8.16,8.16,0,0,1,1.91.26v2.86a7.34,7.34,0,0,0-2-.26c-4.33,0-5.5,4.85-5.5,8.84V50H319.8Z"/><path class="cls-3" d="M166.34,59l-2,4.72h3.91L166.34,59Zm-.43-.81h1l3.58,8.56h-.93l-1-2.3h-4.54l-1,2.3h-.86l3.69-8.56Z"/><path class="cls-3" d="M173.61,61.92a10.92,10.92,0,0,0-.05-1.39h.81v1.2h0a1.93,1.93,0,0,1,1.69-1.35,3.17,3.17,0,0,1,.57.07v.81a2.25,2.25,0,0,0-.6-.07c-1.29,0-1.63,1.37-1.63,2.5v3.09h-.82V61.92Z"/><path class="cls-3" d="M179.34,65.87a4.1,4.1,0,0,0,1.72.39c.77,0,1.45-.4,1.45-1.11,0-1.49-3.16-1.25-3.16-3.07,0-1.24,1.06-1.7,2.14-1.7a5.38,5.38,0,0,1,1.63.28l-.08.67a4,4,0,0,0-1.45-.29c-.84,0-1.42.24-1.42,1,0,1.17,3.23,1,3.23,3.07,0,1.32-1.3,1.77-2.29,1.77a5.23,5.23,0,0,1-1.85-.29l.08-.76Z"/><path class="cls-3" d="M186.8,60.53h.81v6.25h-.81Zm.81-1.67h-.81v-1h.81Z"/><path class="cls-3" d="M199.55,66.78V62.62c0-.88-.35-1.58-1.39-1.58s-1.77.72-1.77,2.28v3.46h-.82V62.62c0-.88-.34-1.58-1.39-1.58-.89,0-1.77.72-1.77,2.28v3.46h-.81V62c0-.48,0-1,0-1.48h.79v1.06h0a2.07,2.07,0,0,1,2-1.21,1.64,1.64,0,0,1,1.74,1.32h0a2.22,2.22,0,0,1,2.1-1.32,2,2,0,0,1,2.08,2.09v4.31Z"/><path class="cls-3" d="M212.26,66.26c1.44,0,2-1.47,2-2.61s-.51-2.61-2-2.61-1.95,1.4-1.95,2.61S210.71,66.26,212.26,66.26Zm2.76.52h-.81v-1h0a2.12,2.12,0,0,1-2.05,1.14c-1.81,0-2.71-1.42-2.71-3.27s.78-3.27,2.71-3.27a2.2,2.2,0,0,1,2.05,1.2h0v-4H215v9.19Z"/><path class="cls-3" d="M218.92,57.58h.81v4h0a2.23,2.23,0,0,1,2.05-1.2c1.77,0,2.24,1.11,2.24,2.66v3.74h-.81V63.05c0-1.08-.22-2-1.56-2s-2,1.3-2,2.39v3.35h-.81v-9.2Z"/><path class="cls-3" d="M232,63.21c0-1.09-.46-2.17-1.67-2.17a2.08,2.08,0,0,0-1.94,2.17Zm.4,3.37a5.65,5.65,0,0,1-1.91.34c-2.18,0-3-1.4-3-3.27s1.11-3.27,2.77-3.27c1.86,0,2.62,1.42,2.62,3.1v.39h-4.5a2.16,2.16,0,0,0,2.17,2.39,4.41,4.41,0,0,0,1.84-.46v.78Z"/><polygon class="cls-3" points="242.15 58.22 243.04 58.22 243.04 62.06 247.09 58.22 248.25 58.22 243.89 62.25 248.62 66.78 247.4 66.78 243.04 62.5 243.04 66.78 242.15 66.78 242.15 58.22"/><path class="cls-3" d="M255.46,63.63h-.23c-1.4,0-3.08.13-3.08,1.5,0,.82.62,1.13,1.37,1.13,1.9,0,1.94-1.58,1.94-2.25v-.38Zm.08,2.14h0a2.35,2.35,0,0,1-2.09,1.15c-1.87,0-2.17-1.2-2.17-1.76,0-2.1,2.35-2.2,4.05-2.2h.15v-.32c0-1.06-.4-1.6-1.49-1.6a3.71,3.71,0,0,0-1.94.51v-.74a5.32,5.32,0,0,1,1.94-.43c1.62,0,2.31.69,2.31,2.33v2.75a9.15,9.15,0,0,0,.06,1.32h-.8v-1Z"/><path class="cls-3" d="M260.15,61.92a10.92,10.92,0,0,0,0-1.39h.81v1.2h0a1.93,1.93,0,0,1,1.69-1.35,3.17,3.17,0,0,1,.57.07v.81a2.25,2.25,0,0,0-.6-.07c-1.29,0-1.64,1.37-1.64,2.5v3.09h-.81V61.92Z"/><path class="cls-3" d="M266.38,61.92a10.92,10.92,0,0,0-.05-1.39h.81v1.2h0a1.93,1.93,0,0,1,1.69-1.35,3.06,3.06,0,0,1,.57.07v.81a2.25,2.25,0,0,0-.6-.07c-1.28,0-1.63,1.37-1.63,2.5v3.09h-.82V61.92Z"/><path class="cls-3" d="M272.61,60.53h.82v6.25h-.82Zm.82-1.67h-.82v-1h.82Z"/><path class="cls-3" d="M281.43,63.21c0-1.09-.47-2.17-1.68-2.17a2.07,2.07,0,0,0-1.93,2.17Zm.4,3.37a5.7,5.7,0,0,1-1.91.34c-2.18,0-3-1.4-3-3.27s1.11-3.27,2.78-3.27c1.86,0,2.62,1.42,2.62,3.1v.39h-4.5A2.15,2.15,0,0,0,280,66.26a4.46,4.46,0,0,0,1.85-.46Z"/><path class="cls-3" d="M285.8,61.92a10.92,10.92,0,0,0-.05-1.39h.82v1.2h0a1.93,1.93,0,0,1,1.69-1.35,3.06,3.06,0,0,1,.57.07v.81a2.22,2.22,0,0,0-.59-.07c-1.29,0-1.64,1.37-1.64,2.5v3.09h-.82V61.92Z"/><path class="cls-3" d="M294.86,58.46h1v1h-1Zm-2.2,0h1v1h-1Zm3.39,4.75c0-1.09-.46-2.17-1.68-2.17a2.07,2.07,0,0,0-1.93,2.17Zm.4,3.37a5.65,5.65,0,0,1-1.91.34c-2.18,0-3-1.4-3-3.27s1.11-3.27,2.77-3.27c1.86,0,2.62,1.42,2.62,3.1v.39h-4.5a2.15,2.15,0,0,0,2.17,2.39,4.45,4.45,0,0,0,1.84-.46v.78Z"/><path class="cls-3" d="M306,62a14.64,14.64,0,0,0-.05-1.47h.78v1.11h0a2.09,2.09,0,0,1,2.13-1.26c1.62,0,2.24,1,2.24,2.4v4h-.81V63c0-1.18-.44-1.94-1.56-1.94-1.48,0-1.95,1.24-1.95,2.28v3.46H306V62Z"/><path class="cls-3" d="M317.89,58.46h1v1h-1Zm-2.21,0h1v1h-1Zm3.39,4.75c0-1.09-.46-2.17-1.68-2.17a2.07,2.07,0,0,0-1.93,2.17Zm.4,3.37a5.65,5.65,0,0,1-1.91.34c-2.18,0-3-1.4-3-3.27s1.11-3.27,2.77-3.27c1.86,0,2.62,1.42,2.62,3.1v.39h-4.5a2.15,2.15,0,0,0,2.17,2.39,4.45,4.45,0,0,0,1.84-.46v.78Z"/><path class="cls-3" d="M328.82,65.68a3.67,3.67,0,0,0,2,.51c1.11,0,2-.54,2-1.76,0-1.67-4.13-1.88-4.13-4.13,0-1.37,1.27-2.23,2.85-2.23a5.69,5.69,0,0,1,1.77.29l-.14.77a3.8,3.8,0,0,0-1.64-.32c-.93,0-2,.37-2,1.47,0,1.72,4.13,1.73,4.13,4.23,0,1.73-1.56,2.41-3,2.41a5.47,5.47,0,0,1-2-.36l.09-.87Z"/><path class="cls-3" d="M337.36,57.58h.81v4h0a2.23,2.23,0,0,1,2.05-1.2c1.77,0,2.24,1.11,2.24,2.66v3.74h-.81V63.05c0-1.08-.22-2-1.56-2s-1.95,1.3-1.95,2.39v3.35h-.81Z"/><path class="cls-3" d="M354.86,62a14.64,14.64,0,0,0-.05-1.47h.78v1.11h0a2.09,2.09,0,0,1,2.13-1.26c1.62,0,2.24,1,2.24,2.4v4h-.81V63c0-1.18-.44-1.94-1.56-1.94-1.48,0-1.95,1.24-1.95,2.28v3.46h-.81Z"/><path class="cls-3" d="M366.42,66.26c1.45,0,1.95-1.47,1.95-2.61s-.5-2.61-1.95-2.61-1.95,1.4-1.95,2.61S364.87,66.26,366.42,66.26Zm2.76.52h-.81v-1h0a2.12,2.12,0,0,1-2,1.14c-1.81,0-2.71-1.42-2.71-3.27s.77-3.27,2.71-3.27a2.2,2.2,0,0,1,2,1.2h0v-4h.81v9.19Z"/><path class="cls-3" d="M377.09,63.21c0-1.09-.46-2.17-1.67-2.17a2.08,2.08,0,0,0-1.94,2.17Zm.4,3.37a5.61,5.61,0,0,1-1.91.34c-2.18,0-3-1.4-3-3.27s1.11-3.27,2.77-3.27c1.86,0,2.62,1.42,2.62,3.1v.39h-4.5a2.16,2.16,0,0,0,2.17,2.39,4.41,4.41,0,0,0,1.84-.46v.78Z"/><path class="cls-3" d="M384.31,61.19h-1.5v4c0,.57.22,1,.88,1a1.84,1.84,0,0,0,.74-.15l.06.64a3,3,0,0,1-1,.17c-1.44,0-1.49-.94-1.49-2.08V61.19h-1.3v-.66H382V59l.81-.27v1.78h1.5v.66Z"/><path class="cls-3" d="M390.53,58.46h1v1h-1Zm-2.21,0h1v1h-1Zm3.39,4.75c0-1.09-.46-2.17-1.67-2.17a2.08,2.08,0,0,0-1.94,2.17Zm.4,3.37a5.61,5.61,0,0,1-1.91.34c-2.18,0-3-1.4-3-3.27s1.11-3.27,2.78-3.27c1.85,0,2.61,1.42,2.61,3.1v.39h-4.5a2.15,2.15,0,0,0,2.17,2.39,4.41,4.41,0,0,0,1.84-.46v.78Z"/><path class="cls-3" d="M395.59,65.87a4.06,4.06,0,0,0,1.71.39c.78,0,1.46-.4,1.46-1.11,0-1.49-3.16-1.25-3.16-3.07,0-1.24,1.06-1.7,2.14-1.7a5.38,5.38,0,0,1,1.63.28l-.08.67a4.13,4.13,0,0,0-1.46-.29c-.84,0-1.42.24-1.42,1,0,1.17,3.24,1,3.24,3.07,0,1.32-1.3,1.77-2.3,1.77a5.18,5.18,0,0,1-1.84-.29l.08-.76Z"/><path class="cls-3" d="M403,60.53h.82v6.25H403Zm.82-1.67H403v-1h.82Z"/><path class="cls-3" d="M349.11,58.43h1v1h-1Zm-2.21,0h1v1h-1Zm3.39,4.76c0-1.09-.46-2.17-1.67-2.17a2.08,2.08,0,0,0-1.94,2.17Zm.4,3.37a5.6,5.6,0,0,1-1.9.34c-2.18,0-3-1.4-3-3.27s1.11-3.27,2.78-3.27c1.85,0,2.62,1.42,2.62,3.1v.39h-4.51a2.16,2.16,0,0,0,2.17,2.39,4.35,4.35,0,0,0,1.85-.47v.79Z"/></g></g></g></g></svg>