<svg width="59" height="50" viewBox="0 0 59 50" fill="none" xmlns="http://www.w3.org/2000/svg">
<path d="M32.97 18.0027C34.0222 17.8492 35.0954 17.9346 36.11 18.2527C38.94 19.1427 39.37 23.3127 39.26 27.1827L33.44 26.9527V27.0027H32.76L32.98 18.0027H32.97ZM49.61 18.6927L49.3 27.5027H47.09C47.2937 24.4963 47.0067 21.4768 46.24 18.5627L49.61 18.6827V18.6927ZM52.38 35.0927C51.505 35.7754 50.5636 36.3683 49.57 36.8627C44.64 39.8627 37.2 39.1927 35.57 28.3727L39.18 28.5127C39.18 29.1927 39.1 29.8427 39.05 30.4527L46.73 30.9227C46.82 30.2627 46.9 29.5627 46.97 28.8427H50.56L50.96 17.4127L45.76 17.2327C43.76 11.8527 39.16 7.8527 29.59 9.4027L28.98 4.0027C28.98 4.0027 28.46 1.2627 26.48 0.462696C25.7027 0.13401 24.8636 -0.0229014 24.02 0.00269637L16.29 0.662696C16.29 0.662696 16.36 1.7727 16.43 2.2327C16.4922 2.46834 16.6013 2.689 16.7508 2.88145C16.9003 3.07391 17.0871 3.23419 17.3 3.3527C17.41 3.4827 18.14 3.5427 18.14 3.5427C18.14 3.5427 18.65 8.5427 18.94 9.4727C19.23 10.4027 19.78 11.3327 20.62 11.4727C21.0318 11.567 21.4494 11.6338 21.87 11.6727C21.87 11.5927 18.71 12.8127 16.94 12.6027C13.87 12.6027 12.3 9.0627 10.83 4.6727L2.59 6.1127C4.79 15.6127 9.48 22.0227 16.94 22.0227C17.9128 22.0511 18.8841 21.9297 19.82 21.6627L20.26 25.1927C10.46 25.9327 4.42 33.0027 3.03 42.3127C2.78874 43.7699 2.735 45.2519 2.87003 46.7227H0V49.9427H13.85C13.7169 48.8411 13.6934 47.729 13.78 46.6227C13.7787 45.201 14.0576 43.7929 14.6008 42.479C15.1439 41.1651 15.9407 39.9711 16.9456 38.9653C17.9504 37.9595 19.1437 37.1617 20.4571 36.6173C21.7705 36.0729 23.1783 35.7927 24.6 35.7927C29.83 49.5027 41.96 51.2927 50.6 46.9027C51.9757 46.3567 53.2762 45.6375 54.47 44.7627L55.95 47.2227L58.7 45.5727L52.4 35.0627L52.38 35.0927Z" fill="#00A886"/>
</svg>
