<svg width="277" height="68" viewBox="0 0 277 68" fill="none" xmlns="http://www.w3.org/2000/svg">
<path d="M82.9633 45.3437V5.90607H98.84H100.809C106.143 5.90607 109.763 6.85866 111.605 8.70036C113.447 10.542 114.399 14.1619 114.399 19.433C114.399 24.704 113.51 28.1969 111.732 29.9751C109.954 31.6898 106.397 32.5789 100.999 32.5789H99.2845H90.4571V45.3437H82.9633ZM90.4571 26.2917H98.967C102.333 26.2917 104.492 25.9107 105.445 25.1486C106.334 24.3865 106.842 22.5448 106.842 19.6235C106.842 16.3212 106.461 14.2254 105.699 13.3998C104.937 12.5743 102.968 12.1932 99.7926 12.1932H90.5206L90.4571 26.2917Z" fill="#89242E"/>
<path d="M126.656 5.90607V45.3437H119.162V5.90607H126.656Z" fill="#89242E"/>
<path d="M170.221 5.90607V45.3437H157.52L146.279 23.6879C145.708 22.6083 144.819 20.7031 143.676 18.0358L142.406 15.178L141.135 12.3202H140.818L140.945 14.924L141.008 17.4643L141.072 22.6083V45.2167H133.578V5.90607H146.279L156.504 25.9107C157.393 27.6889 158.473 29.8481 159.679 32.3248L161.204 35.5002L162.728 38.739H162.982L162.918 36.1987L162.855 33.6585L162.791 28.5779V5.90607H170.221Z" fill="#89242E"/>
<path d="M184.637 5.90607V38.612H203.118V45.3437H177.144V5.90607H184.637Z" fill="#89242E"/>
<path d="M230.743 37.7864H213.724L211.247 45.3437H203.308L216.518 5.90607H227.759L241.095 45.3437H233.347L230.743 37.7864ZM229.029 32.2613L222.233 11.7487L215.502 32.2613H229.029Z" fill="#89242E"/>
<path d="M244.461 45.3437V5.90607H263.83C268.403 5.90607 271.451 6.60464 273.102 8.06529C274.753 9.52594 275.579 12.2567 275.579 16.2576C275.579 21.1477 273.674 24.0055 269.8 24.8946V25.0216C274.309 25.7202 276.532 28.832 276.532 34.4206C276.532 38.4215 275.643 41.2793 273.928 42.8669C272.213 44.4546 269.165 45.2802 264.846 45.2802H244.461V45.3437ZM251.955 22.4813H261.099C264.084 22.4813 265.926 22.1638 266.752 21.5287C267.577 20.8936 267.958 19.3695 267.958 17.0197C267.958 13.8444 266.18 12.2567 262.56 12.2567H251.891V22.4813H251.955ZM251.955 39.0565H260.147L262.751 38.993C265.291 38.993 266.942 38.612 267.704 37.9134C268.53 37.2149 268.911 35.6907 268.911 33.4044C268.911 30.9912 268.466 29.5305 267.641 28.8955C266.815 28.2604 264.719 27.9429 261.417 27.9429H251.828V39.0565H251.955Z" fill="#89242E"/>
<path d="M82.9633 58.2356V47.1219H87.4723H88.0439C89.568 47.1219 90.5841 47.3759 91.0922 47.884C91.6002 48.392 91.8543 49.4081 91.8543 50.9323C91.8543 52.3929 91.6002 53.4091 91.0922 53.9171C90.5841 54.4252 89.568 54.6792 88.0439 54.6792H87.5358H85.059V58.2991H82.9633V58.2356ZM85.059 52.8375H87.4723C88.4249 52.8375 89.06 52.7105 89.314 52.52C89.568 52.3294 89.695 51.7579 89.695 50.9323C89.695 49.9797 89.568 49.4081 89.3775 49.1541C89.187 48.9001 88.6154 48.8366 87.7263 48.8366H85.059V52.8375Z" fill="#89242E"/>
<path d="M98.1414 55.6953H100.047V56.0128C100.047 57.537 98.9035 58.2991 96.6172 58.2991C95.0931 58.2991 94.077 58.045 93.5689 57.537C93.0609 57.0289 92.8703 55.8858 92.8703 54.1711C92.8703 52.647 93.1244 51.6309 93.6324 51.1228C94.1405 50.6148 95.0931 50.3607 96.5537 50.3607C97.9509 50.3607 98.9035 50.6148 99.348 51.1228C99.7926 51.6309 100.047 52.647 100.047 54.1076V54.6792H94.7755C94.7755 54.8697 94.7755 54.9967 94.7755 54.9967C94.7755 55.7588 94.9026 56.2669 95.1566 56.5209C95.4106 56.7749 95.8552 56.9019 96.5537 56.9019C97.2523 56.9019 97.6969 56.8384 97.8874 56.6479C98.0779 56.5209 98.1414 56.2034 98.1414 55.6953ZM98.1414 53.5361V53.2185C98.1414 52.5835 98.0144 52.2024 97.8239 52.0119C97.6333 51.8214 97.1253 51.7579 96.4267 51.7579C95.7282 51.7579 95.2836 51.8849 95.0931 52.0754C94.9026 52.3294 94.7755 52.774 94.7755 53.5361H98.1414Z" fill="#89242E"/>
<path d="M101.634 50.4243H103.476L103.349 51.5039H103.412C103.857 50.6783 104.556 50.2972 105.508 50.2972C106.905 50.2972 107.54 51.1863 107.54 52.901V53.4726H105.762C105.762 53.2821 105.826 53.0915 105.826 53.028C105.826 52.2024 105.508 51.7579 104.873 51.7579C103.921 51.7579 103.476 52.393 103.476 53.5996V58.1721H101.634V50.4243Z" fill="#89242E"/>
<path d="M113.574 55.2508H115.415V55.5048L115.288 56.7114C115.034 57.791 113.955 58.2991 111.922 58.2991C110.462 58.2991 109.509 58.045 109.001 57.4735C108.493 56.9654 108.302 55.8858 108.302 54.2982C108.302 52.7105 108.557 51.6944 109.001 51.1228C109.509 50.5513 110.398 50.2972 111.795 50.2972C113.129 50.2972 114.082 50.4878 114.526 50.8688C115.034 51.2498 115.225 52.0119 115.225 53.0915H113.383C113.383 52.2024 112.875 51.7579 111.795 51.7579C111.033 51.7579 110.589 51.8849 110.398 52.2024C110.208 52.52 110.144 53.2185 110.144 54.2982C110.144 55.3778 110.271 56.0763 110.462 56.3304C110.652 56.5844 111.16 56.7749 111.986 56.7749C112.621 56.7749 113.065 56.6479 113.192 56.4574C113.51 56.3304 113.574 55.8858 113.574 55.2508Z" fill="#89242E"/>
<path d="M121.829 55.6953H123.735V56.0128C123.735 57.537 122.591 58.2991 120.305 58.2991C118.781 58.2991 117.765 58.045 117.257 57.537C116.749 57.0289 116.558 55.8858 116.558 54.1711C116.558 52.647 116.812 51.6309 117.32 51.1228C117.828 50.6148 118.781 50.3607 120.242 50.3607C121.639 50.3607 122.591 50.6148 123.036 51.1228C123.481 51.6309 123.735 52.647 123.735 54.1076V54.6792H118.464C118.464 54.8697 118.464 54.9967 118.464 54.9967C118.464 55.7588 118.591 56.2669 118.845 56.5209C119.099 56.7749 119.543 56.9019 120.242 56.9019C120.94 56.9019 121.385 56.8384 121.575 56.6479C121.702 56.5209 121.829 56.2034 121.829 55.6953ZM121.829 53.5361V53.2185C121.829 52.5835 121.702 52.2024 121.512 52.0119C121.321 51.8214 120.813 51.7579 120.115 51.7579C119.416 51.7579 118.972 51.8849 118.781 52.0754C118.591 52.3294 118.464 52.774 118.464 53.5361H121.829Z" fill="#89242E"/>
<path d="M125.259 50.4243H127.164L127.1 51.5674H127.164C127.609 50.7418 128.434 50.2972 129.704 50.2972C130.847 50.2972 131.609 50.5513 132.054 51.1228C132.499 51.6944 132.689 52.7105 132.689 54.1712C132.689 55.6953 132.499 56.7749 132.054 57.3465C131.609 57.918 130.847 58.2356 129.704 58.2356C128.498 58.2356 127.672 57.8545 127.291 57.029H127.227V61.4744H125.259V50.4243ZM128.942 51.8214C128.244 51.8214 127.736 52.0119 127.545 52.3295C127.354 52.647 127.227 53.3456 127.227 54.3617C127.227 55.3778 127.354 56.0128 127.609 56.3939C127.863 56.7114 128.307 56.9019 129.006 56.9019C129.704 56.9019 130.212 56.7749 130.403 56.4574C130.593 56.1399 130.72 55.4413 130.72 54.4252C130.72 53.3456 130.593 52.647 130.403 52.393C130.212 51.9484 129.704 51.8214 128.942 51.8214Z" fill="#89242E"/>
<path d="M139.23 50.4243V51.8214H136.245V55.7588C136.245 56.4574 136.499 56.8384 137.071 56.8384C137.706 56.8384 137.96 56.3939 137.96 55.5048V55.1873H139.548V55.5683C139.548 55.9493 139.548 56.2033 139.484 56.5209C139.357 57.7275 138.468 58.2991 136.817 58.2991C135.166 58.2991 134.34 57.537 134.34 56.0128V51.8214H133.324V50.4243H134.34V48.7096H136.182V50.4243H139.23Z" fill="#89242E"/>
<path d="M142.469 47.0584V48.646H140.627V47.0584H142.469ZM142.469 50.4242V58.2356H140.627V50.4242H142.469Z" fill="#89242E"/>
<path d="M147.677 50.2972C149.201 50.2972 150.153 50.5513 150.661 50.9958C151.106 51.5039 151.36 52.52 151.36 54.0441C151.36 55.7588 151.106 56.9019 150.661 57.4735C150.217 58.045 149.264 58.2991 147.804 58.2991C146.216 58.2991 145.2 58.0451 144.692 57.537C144.247 57.0289 143.993 55.9493 143.993 54.2347C143.993 52.5835 144.247 51.5674 144.692 51.0593C145.136 50.5513 146.152 50.2972 147.677 50.2972ZM147.677 51.8214C146.915 51.8214 146.406 51.9484 146.216 52.266C146.025 52.52 145.898 53.2186 145.898 54.2347C145.898 55.3778 146.025 56.1399 146.216 56.4574C146.406 56.7749 146.915 56.9019 147.74 56.9019C148.502 56.9019 149.01 56.7749 149.201 56.4574C149.391 56.1399 149.518 55.3778 149.518 54.2347C149.518 53.2186 149.391 52.5835 149.201 52.3295C148.947 51.9484 148.439 51.8214 147.677 51.8214Z" fill="#89242E"/>
<path d="M152.884 50.4243H154.726L154.662 51.7579H154.726C155.107 50.8053 155.932 50.3607 157.203 50.3607C159.044 50.3607 159.997 51.2498 159.997 52.9645V58.2991H158.092V53.5361V53.2185L158.028 52.647C157.965 52.0754 157.457 51.7579 156.631 51.7579C155.361 51.7579 154.726 52.3295 154.726 53.5361V58.1721H152.884V50.4243Z" fill="#89242E"/>
<path d="M167.872 52.647H165.967C165.967 51.6944 166.157 51.0593 166.602 50.7418C167.046 50.4243 167.872 50.2972 169.205 50.2972C170.603 50.2972 171.555 50.4878 172.063 50.8688C172.571 51.2498 172.825 52.0119 172.825 53.0915V58.1721H170.984L171.047 57.0925H170.984C170.603 57.8545 169.777 58.2356 168.507 58.2356C166.602 58.2356 165.649 57.41 165.649 55.8223C165.649 54.1712 166.602 53.4091 168.57 53.4091C169.84 53.4091 170.666 53.7266 170.92 54.2982H170.984V53.028C170.984 52.393 170.857 52.0119 170.666 51.8214C170.476 51.6309 170.031 51.5039 169.332 51.5039C168.38 51.5674 167.872 51.9484 167.872 52.647ZM169.142 54.7427C168.062 54.7427 167.554 55.1238 167.554 55.8223C167.554 56.3304 167.681 56.6479 167.872 56.8384C168.062 56.9654 168.57 57.0925 169.269 57.0925C170.412 57.0925 170.984 56.7114 170.984 55.9493C170.92 55.1237 170.348 54.7427 169.142 54.7427Z" fill="#89242E"/>
<path d="M174.667 50.4243H176.509L176.445 51.7579H176.509C176.89 50.8053 177.715 50.3607 178.985 50.3607C180.827 50.3607 181.78 51.2498 181.78 52.9645V58.2991H179.938V53.5361V53.2185L179.874 52.647C179.811 52.0754 179.303 51.7579 178.477 51.7579C177.207 51.7579 176.572 52.3295 176.572 53.5361V58.1721H174.73L174.667 50.4243Z" fill="#89242E"/>
<path d="M190.48 47.0584V58.1721H188.638L188.702 56.9019H188.638C188.257 57.791 187.495 58.2356 186.289 58.2356C185.082 58.2356 184.256 57.9815 183.812 57.41C183.431 56.8384 183.24 55.6953 183.24 53.9806C183.24 52.5835 183.431 51.6309 183.875 51.0593C184.32 50.4878 185.082 50.2337 186.162 50.2337C187.432 50.2337 188.257 50.6148 188.511 51.4403H188.575V46.9949L190.48 47.0584ZM186.797 51.8214C186.098 51.8214 185.654 51.9484 185.463 52.2659C185.273 52.5835 185.146 53.2185 185.146 54.1711C185.146 55.3143 185.273 56.0128 185.463 56.3304C185.654 56.6479 186.162 56.8384 186.86 56.8384C187.622 56.8384 188.067 56.6479 188.321 56.3304C188.511 56.0128 188.638 55.2507 188.638 54.1076C188.638 53.155 188.511 52.52 188.321 52.2024C188.003 51.9484 187.495 51.8214 186.797 51.8214Z" fill="#89242E"/>
<path d="M198.609 47.0584V58.172H196.513V47.0584H198.609Z" fill="#89242E"/>
<path d="M200.578 50.4243H202.419L202.356 51.7579H202.419C202.8 50.8053 203.626 50.3607 204.896 50.3607C206.738 50.3607 207.69 51.2498 207.69 52.9645V58.2991H205.722V53.5361V53.2185L205.658 52.647C205.595 52.0754 205.087 51.7579 204.261 51.7579C202.991 51.7579 202.356 52.3295 202.356 53.5361V58.1721H200.514V50.4243H200.578Z" fill="#89242E"/>
<path d="M214.422 50.4243V51.8214H211.437V55.7588C211.437 56.4574 211.691 56.8384 212.263 56.8384C212.898 56.8384 213.152 56.3939 213.152 55.5048V55.1873H214.74V55.5683C214.74 55.9493 214.74 56.2033 214.676 56.5209C214.549 57.7275 213.66 58.2991 212.009 58.2991C210.358 58.2991 209.532 57.537 209.532 56.0128V51.8214H208.516V50.4243H209.532V48.7096H211.374V50.4243H214.422Z" fill="#89242E"/>
<path d="M220.773 55.6953H222.678V56.0128C222.678 57.537 221.535 58.2991 219.249 58.2991C217.724 58.2991 216.708 58.045 216.2 57.537C215.692 57.0289 215.502 55.8858 215.502 54.1711C215.502 52.647 215.756 51.6309 216.264 51.1228C216.772 50.6148 217.724 50.3607 219.185 50.3607C220.582 50.3607 221.535 50.6148 221.979 51.1228C222.424 51.6309 222.678 52.647 222.678 54.1076V54.6792H217.407C217.407 54.8697 217.407 54.9967 217.407 54.9967C217.407 55.7588 217.534 56.2669 217.788 56.5209C218.042 56.7749 218.487 56.9019 219.185 56.9019C219.884 56.9019 220.328 56.8384 220.519 56.6479C220.709 56.5209 220.773 56.2034 220.773 55.6953ZM220.836 53.5361V53.2185C220.836 52.5835 220.709 52.2024 220.519 52.0119C220.328 51.8214 219.82 51.7579 219.122 51.7579C218.423 51.7579 217.979 51.8849 217.788 52.0754C217.597 52.3294 217.47 52.774 217.47 53.5361H220.836Z" fill="#89242E"/>
<path d="M226.107 47.0584V58.172H224.266V47.0584H226.107Z" fill="#89242E"/>
<path d="M229.791 47.0584V58.172H227.949V47.0584H229.791Z" fill="#89242E"/>
<path d="M233.474 47.0584V48.646H231.632V47.0584H233.474ZM233.474 50.4242V58.2356H231.632V50.4242H233.474Z" fill="#89242E"/>
<path d="M242.302 50.4243V58.3626C242.302 59.6327 242.048 60.5218 241.539 60.9664C241.031 61.4109 240.079 61.6649 238.682 61.6649C237.348 61.6649 236.459 61.4744 236.014 61.1569C235.57 60.7758 235.316 60.0773 235.316 58.9977H237.158C237.158 59.5057 237.221 59.8232 237.412 59.9503C237.602 60.0773 238.047 60.1408 238.682 60.1408C239.825 60.1408 240.396 59.6327 240.396 58.6801V56.9019H240.333C240.015 57.7275 239.253 58.1721 238.047 58.1721C236.84 58.1721 236.078 57.918 235.633 57.3465C235.189 56.7749 234.998 55.6953 234.998 54.1712C234.998 52.7105 235.189 51.6944 235.633 51.1228C236.078 50.5513 236.84 50.2972 237.983 50.2972C239.253 50.2972 240.015 50.7418 240.396 51.6944H240.46L240.396 50.4243H242.302ZM238.618 51.8214C237.92 51.8214 237.412 51.9484 237.221 52.266C237.031 52.5835 236.903 53.2186 236.903 54.2347C236.903 55.3143 237.031 56.0128 237.221 56.3304C237.412 56.6479 237.92 56.7749 238.618 56.7749C239.317 56.7749 239.825 56.6479 240.015 56.3304C240.206 56.0128 240.333 55.3143 240.333 54.2347C240.333 53.2186 240.206 52.52 240.015 52.266C239.888 51.9484 239.38 51.8214 238.618 51.8214Z" fill="#89242E"/>
<path d="M249.16 55.6953H251.065V56.0128C251.065 57.537 249.922 58.2991 247.636 58.2991C246.112 58.2991 245.096 58.045 244.588 57.537C244.08 57.0289 243.889 55.8858 243.889 54.1711C243.889 52.647 244.143 51.6309 244.651 51.1228C245.159 50.6148 246.112 50.3607 247.573 50.3607C248.97 50.3607 249.922 50.6148 250.367 51.1228C250.811 51.6309 251.065 52.647 251.065 54.1076V54.6792H245.794C245.794 54.8697 245.794 54.9967 245.794 54.9967C245.794 55.7588 245.921 56.2669 246.175 56.5209C246.429 56.7749 246.874 56.9019 247.573 56.9019C248.271 56.9019 248.716 56.8384 248.906 56.6479C249.033 56.5209 249.16 56.2034 249.16 55.6953ZM249.16 53.5361V53.2185C249.16 52.5835 249.033 52.2024 248.843 52.0119C248.652 51.8214 248.144 51.7579 247.446 51.7579C246.747 51.7579 246.302 51.8849 246.112 52.0754C245.921 52.3294 245.794 52.774 245.794 53.5361H249.16Z" fill="#89242E"/>
<path d="M252.59 50.4243H254.431L254.368 51.7579H254.431C254.812 50.8053 255.638 50.3607 256.908 50.3607C258.75 50.3607 259.702 51.2498 259.702 52.9645V58.2991H257.861V53.5361V53.2185L257.797 52.647C257.734 52.0754 257.226 51.7579 256.4 51.7579C255.13 51.7579 254.495 52.3295 254.495 53.5361V58.1721H252.653L252.59 50.4243Z" fill="#89242E"/>
<path d="M266.434 55.2508H268.276V55.5048L268.149 56.7114C267.895 57.791 266.815 58.2991 264.783 58.2991C263.322 58.2991 262.37 58.045 261.862 57.4735C261.354 56.9654 261.163 55.8858 261.163 54.2982C261.163 52.7105 261.417 51.6944 261.862 51.1228C262.37 50.5513 263.259 50.2972 264.656 50.2972C265.99 50.2972 266.942 50.4878 267.387 50.8688C267.895 51.2498 268.085 52.0119 268.085 53.0915H266.244C266.244 52.2024 265.736 51.7579 264.656 51.7579C263.894 51.7579 263.449 51.8849 263.259 52.2024C263.068 52.52 263.005 53.2185 263.005 54.2982C263.005 55.3778 263.132 56.0763 263.322 56.3304C263.513 56.5844 264.021 56.7749 264.846 56.7749C265.481 56.7749 265.926 56.6479 266.053 56.4574C266.307 56.3304 266.434 55.8858 266.434 55.2508Z" fill="#89242E"/>
<path d="M274.69 55.6953H276.595V56.0128C276.595 57.537 275.452 58.2991 273.166 58.2991C271.642 58.2991 270.626 58.045 270.117 57.537C269.609 57.0289 269.419 55.8858 269.419 54.1711C269.419 52.647 269.673 51.6309 270.181 51.1228C270.689 50.6148 271.642 50.3607 273.102 50.3607C274.499 50.3607 275.452 50.6148 275.897 51.1228C276.341 51.6309 276.595 52.647 276.595 54.1076V54.6792H271.324C271.324 54.8697 271.324 54.9967 271.324 54.9967C271.324 55.7588 271.451 56.2669 271.705 56.5209C271.959 56.7749 272.404 56.9019 273.102 56.9019C273.801 56.9019 274.245 56.8384 274.436 56.6479C274.563 56.5209 274.69 56.2034 274.69 55.6953ZM274.69 53.5361V53.2185C274.69 52.5835 274.563 52.2024 274.372 52.0119C274.182 51.8214 273.674 51.7579 272.975 51.7579C272.277 51.7579 271.832 51.8849 271.642 52.0754C271.451 52.3294 271.324 52.774 271.324 53.5361H274.69Z" fill="#89242E"/>
<path d="M28.9191 32.0709C28.9826 31.2453 28.9826 30.1657 29.0461 29.4036C27.0774 29.2131 25.8708 27.7524 25.5533 27.3714C24.4102 29.2766 25.7438 31.6263 28.9191 32.0709Z" fill="#89242E"/>
<path d="M50.3209 27.2444C50.0668 27.6254 48.7967 29.0861 46.828 29.2766C46.8915 30.0387 46.8915 31.1183 46.955 31.9439C50.1304 31.5628 51.5275 29.2131 50.3209 27.2444Z" fill="#89242E"/>
<path d="M40.2868 22.4179C46.7645 26.1648 49.1778 22.6719 49.1778 22.6719C49.1778 22.6719 51.5275 25.5297 47.4631 26.6093C43.1446 27.7524 40.2233 25.1487 39.5247 24.6406C38.2546 23.7515 38.0006 21.1477 40.2868 22.4179Z" fill="#89242E"/>
<path d="M43.7162 19.1155C46.193 20.6397 47.0185 20.7032 47.0185 20.7032C47.0185 20.7032 46.8915 23.2435 43.2716 21.8463C41.938 21.3383 38.0006 19.1155 38.6357 18.1629C39.7788 16.5752 41.7475 17.8454 43.7162 19.1155Z" fill="#89242E"/>
<path d="M35.5873 22.4179C29.1097 26.1648 26.8234 22.6719 26.8234 22.6719C26.8234 22.6719 24.3467 25.5297 28.4746 26.6093C32.793 27.7524 35.7143 25.1487 36.4129 24.6406C37.6831 23.7515 37.9371 21.1477 35.5873 22.4179Z" fill="#89242E"/>
<path d="M32.158 19.1155C29.6812 20.6397 28.9826 20.7032 28.9826 20.7032C28.9826 20.7032 28.9826 23.2435 32.666 21.8463C33.9997 21.3383 37.9371 19.1155 37.302 18.1629C36.0954 16.5752 34.1267 17.8454 32.158 19.1155Z" fill="#89242E"/>
<path d="M45.4309 33.2775C45.3038 32.1979 45.1768 30.1657 45.1133 29.1496C42.065 29.1496 38.8262 26.8633 37.9371 25.4026C37.048 26.8633 33.8091 29.1496 30.7608 29.1496C30.6973 30.2292 30.5703 32.1979 30.4433 33.2775C30.2528 35.2462 30.9513 37.3419 32.285 38.8661C32.9836 39.6281 33.8726 40.3902 34.8252 40.8348C34.9523 40.8983 34.9523 40.8983 35.0793 40.9618L35.5238 41.1523C35.7779 41.2793 35.9684 41.4698 36.2224 41.6604C36.921 42.1684 37.8736 42.1049 37.9371 42.1049C38.0006 42.1049 39.0167 42.1684 39.6518 41.6604C39.9058 41.4698 40.0963 41.2793 40.3503 41.1523L40.7949 40.9618C40.9219 40.8983 40.9219 40.8983 41.0489 40.8348C42.0015 40.3902 42.8906 39.6281 43.5892 38.8661C44.9228 37.4054 45.6214 35.3097 45.4309 33.2775ZM38.0006 34.6746C38.7627 34.6746 39.3342 34.9922 39.3342 35.2462C39.3342 35.5002 38.6992 35.8178 38.0006 35.8178C37.302 35.8178 36.6669 35.5002 36.6669 35.2462C36.6034 34.9922 37.2385 34.6746 38.0006 34.6746ZM34.3807 32.4519C32.031 32.4519 32.158 31.8803 32.0945 31.6898C32.0945 31.6898 32.7295 30.4832 34.3807 30.4832C36.0319 30.4832 36.4764 31.9438 36.4764 31.9438C36.4764 31.9438 36.1589 32.4519 34.3807 32.4519ZM38.0006 39.1201C36.5399 39.1201 35.3968 37.9135 35.3968 37.5324C35.3968 37.1514 40.6679 37.1514 40.6679 37.5324C40.6679 37.85 39.4612 39.1201 38.0006 39.1201ZM41.4934 32.4519C39.7788 32.4519 39.3977 31.9438 39.3977 31.9438C39.3977 31.9438 39.8423 30.4832 41.4934 30.4832C43.1446 30.4832 43.7797 31.6898 43.7797 31.6898C43.7162 31.8803 43.9067 32.4519 41.4934 32.4519Z" fill="#89242E"/>
<path d="M14.7571 30.7372V29.4036H0.65866C0.595153 29.6576 0.595154 29.8481 0.595154 30.1657C0.595154 30.3562 0.595153 30.6102 0.65866 30.8007H14.7571V30.7372Z" fill="#89242E"/>
<path d="M19.0756 30.0387C19.0756 28.705 17.996 27.6254 16.6623 27.6254C15.5827 27.6254 14.6301 28.3875 14.3761 29.4036C14.3126 29.6576 14.2491 29.8481 14.2491 30.1022C14.2491 30.3562 14.3126 30.5467 14.3761 30.8007C14.6301 31.8803 15.5827 32.5789 16.6623 32.5789C18.0595 32.4519 19.0756 31.3723 19.0756 30.0387ZM18.0595 30.0387C18.0595 30.8007 17.4244 31.4358 16.7258 31.4358C15.9638 31.4358 15.3287 30.7372 15.3287 30.0387C15.3287 29.2766 16.0273 28.705 16.7258 28.705C17.4244 28.705 18.0595 29.3401 18.0595 30.0387Z" fill="#89242E"/>
<path d="M0.785675 32.96H10.5657L13.614 36.1353H20.5362H20.9808V37.4054H20.4092H13.106L9.93064 34.2936H0.976192L0.785675 32.96Z" fill="#89242E"/>
<path d="M15.0112 42.0414L14.1221 42.9305L13.6775 42.486L10.5022 39.3106H2.11931C1.9923 38.8661 1.86529 38.4215 1.80178 37.977H11.0102L14.5666 41.5334L15.0112 42.0414Z" fill="#89242E"/>
<path d="M22.759 34.5476C21.6794 34.5476 20.7903 35.1827 20.4727 36.1353C20.3457 36.3893 20.3457 36.6433 20.3457 36.8974C20.3457 37.0244 20.3457 37.2149 20.4092 37.3419C20.6633 38.4215 21.6159 39.3106 22.759 39.3106C24.0926 39.3106 25.1722 38.231 25.1722 36.8974C25.2357 35.6272 24.0926 34.5476 22.759 34.5476ZM22.759 38.2945C21.9969 38.2945 21.3618 37.6595 21.3618 36.9609C21.3618 36.2623 22.0604 35.6272 22.759 35.6272C23.5211 35.6272 24.0926 36.2623 24.0926 36.9609C24.0926 37.6595 23.5211 38.2945 22.759 38.2945Z" fill="#89242E"/>
<path d="M15.6462 41.2793C15.2652 41.2793 14.8842 41.4063 14.5666 41.5969C14.1221 41.7239 13.8045 42.1049 13.5505 42.486C13.4235 42.867 13.1695 43.248 13.1695 43.6926C13.1695 45.0262 14.2491 46.1058 15.5827 46.1058C16.9164 46.1058 17.996 45.0262 17.996 43.6926C18.123 42.2954 16.9799 41.2793 15.6462 41.2793ZM15.6462 45.0262C14.8842 45.0262 14.3126 44.3912 14.3126 43.6926C14.3126 42.9305 14.9477 42.3589 15.6462 42.3589C16.3448 42.3589 17.0434 42.867 17.0434 43.6926C17.0434 44.3912 16.3448 45.0262 15.6462 45.0262Z" fill="#89242E"/>
<path d="M22.8225 14.416H24.1561V1.7782C23.9021 1.7147 23.7116 1.71469 23.394 1.71469C23.2035 1.71469 22.9495 1.7147 22.759 1.7782V14.416H22.8225Z" fill="#89242E"/>
<path d="M23.4576 18.798C24.7912 18.798 25.8708 17.7184 25.8708 16.3847C25.8708 15.3051 25.1087 14.3525 24.0926 14.0985C23.8386 14.035 23.6481 13.9715 23.394 13.9715C23.14 13.9715 22.9495 14.035 22.6955 14.0985C21.6159 14.3525 20.9173 15.3051 20.9173 16.3847C21.0443 17.6549 22.1239 18.798 23.4576 18.798ZM23.4576 17.6549C22.6955 17.6549 22.0604 17.0198 22.0604 16.3212C22.0604 15.6226 22.759 14.9241 23.4576 14.9241C24.2196 14.9241 24.7912 15.6226 24.7912 16.3212C24.7912 17.0833 24.1561 17.6549 23.4576 17.6549Z" fill="#89242E"/>
<path d="M20.5362 0.44455V10.2246L17.3609 13.3364V20.1951V20.6397H16.0908V20.0681V12.7648L19.2026 9.58951V0.635062L20.5362 0.44455Z" fill="#89242E"/>
<path d="M22.8225 9.14498V0.127021L24.0926 0V9.71653" fill="#89242E"/>
<path d="M11.4548 14.6065L10.5657 13.7174L11.0102 13.2729L14.1856 10.0976V1.71469C14.6301 1.58768 15.0747 1.46066 15.5192 1.39716V10.6056L11.9628 14.162L11.4548 14.6065Z" fill="#89242E"/>
<path d="M19.0121 22.4179C19.0121 21.3383 18.377 20.4492 17.4244 20.1316C17.1704 20.0046 16.9164 20.0046 16.6623 20.0046C16.5353 20.0046 16.3448 20.0046 16.2178 20.0681C15.1382 20.3221 14.2491 21.2748 14.2491 22.4179C14.2491 23.7515 15.3287 24.8311 16.6623 24.8311C17.9325 24.8311 19.0121 23.7515 19.0121 22.4179ZM15.2652 22.4179C15.2652 21.6558 15.9003 21.0207 16.5988 21.0207C17.3609 21.0207 17.9325 21.7193 17.9325 22.4179C17.9325 23.18 17.2974 23.7515 16.5988 23.7515C15.9003 23.815 15.2652 23.18 15.2652 22.4179Z" fill="#89242E"/>
<path d="M12.2804 15.3051C12.2804 14.9241 12.1534 14.543 11.9628 14.2255C11.8358 13.7809 11.4548 13.4634 11.0738 13.2094C10.6927 13.0824 10.3117 12.8283 9.86712 12.8283C8.53348 12.8283 7.45387 13.9079 7.45387 15.2416C7.45387 16.5752 8.53348 17.6548 9.86712 17.6548C11.2008 17.7819 12.2804 16.7022 12.2804 15.3051ZM8.46998 15.3051C8.46998 14.543 9.10504 13.9715 9.80362 13.9715C10.5657 13.9715 11.1373 14.6065 11.1373 15.3051C11.1373 16.0037 10.6292 16.7022 9.80362 16.7022C9.10504 16.7022 8.46998 16.0672 8.46998 15.3051Z" fill="#89242E"/>
<path d="M52.9882 14.416H51.6545V1.7782C51.9085 1.7147 52.0991 1.71469 52.4166 1.71469C52.6071 1.71469 52.8611 1.7147 53.0517 1.7782V14.416H52.9882Z" fill="#89242E"/>
<path d="M54.7663 16.3847C54.7663 15.3051 54.0043 14.3525 52.9882 14.0985C52.7341 14.035 52.5436 13.9715 52.2896 13.9715C52.0355 13.9715 51.845 14.035 51.591 14.0985C50.5114 14.3525 49.8128 15.3051 49.8128 16.3847C49.8128 17.7184 50.8924 18.798 52.2261 18.798C53.6232 18.798 54.7663 17.6549 54.7663 16.3847ZM50.9559 16.3847C50.9559 15.6227 51.591 14.9876 52.2896 14.9876C52.9882 14.9876 53.6867 15.6862 53.6867 16.3847C53.6867 17.1468 52.9882 17.7184 52.2896 17.7184C51.591 17.6549 50.9559 17.0833 50.9559 16.3847Z" fill="#89242E"/>
<path d="M55.2109 0.44455V10.2246L58.4497 13.3364V20.1951V20.6397H59.6564V20.0681V12.7648L56.608 9.58951V0.635062L55.2109 0.44455Z" fill="#89242E"/>
<path d="M52.9882 9.14498V0.127021L51.6545 0V9.71653" fill="#89242E"/>
<path d="M64.2923 14.6065L65.1814 13.7174L64.7369 13.2729L61.5616 10.0976V1.71469C61.117 1.58768 60.6725 1.46066 60.2279 1.39716V10.6056L63.7843 14.162L64.2923 14.6065Z" fill="#89242E"/>
<path d="M59.2118 24.8311C60.5454 24.8311 61.6251 23.7515 61.6251 22.4179C61.6251 21.2748 60.7995 20.2586 59.6564 20.0681C59.4658 20.0046 59.3388 20.0046 59.2118 20.0046C58.9578 20.0046 58.7037 20.0681 58.4497 20.1316C57.4336 20.4492 56.8621 21.3383 56.8621 22.4179C56.7985 23.7515 57.8782 24.8311 59.2118 24.8311ZM59.2118 23.7515C58.4497 23.7515 57.8782 23.1164 57.8782 22.4179C57.8782 21.7193 58.5132 21.0207 59.2118 21.0207C59.9104 21.0207 60.5454 21.7193 60.5454 22.4179C60.5454 23.18 59.9739 23.7515 59.2118 23.7515Z" fill="#89242E"/>
<path d="M65.9435 17.7819C67.2772 17.7819 68.3568 16.7023 68.3568 15.3686C68.3568 14.035 67.2772 12.9554 65.9435 12.9554C65.499 12.9554 65.1179 13.1459 64.7369 13.3364C64.3559 13.5904 63.9748 13.8445 63.8478 14.3525C63.6573 14.6701 63.5303 15.1146 63.5303 15.4321C63.5303 16.7023 64.6099 17.7819 65.9435 17.7819ZM65.9435 16.7023C65.1814 16.7023 64.6099 16.0037 64.6099 15.3051C64.6099 14.543 65.1179 13.9715 65.9435 13.9715C66.7056 13.9715 67.2772 14.6065 67.2772 15.3051C67.2772 16.0672 66.6421 16.7023 65.9435 16.7023Z" fill="#89242E"/>
<path d="M35.0793 67.4441V57.6641L31.9674 54.6157V47.757V47.249H30.6973V47.8205V55.1873L33.7456 58.2991V67.2536L35.0793 67.4441Z" fill="#89242E"/>
<path d="M38.7627 53.4726H37.429V67.5076C37.6831 67.5711 37.8736 67.5711 38.1911 67.5711C38.3816 67.5711 38.6357 67.5711 38.8262 67.5076V53.4726H38.7627Z" fill="#89242E"/>
<path d="M25.9978 53.2821L25.1087 54.1712L25.5533 54.6157L28.7286 57.7911V66.174C29.1732 66.301 29.6177 66.428 30.0622 66.4915V57.283L26.5059 53.7266L25.9978 53.2821Z" fill="#89242E"/>
<path d="M31.1419 43.0575C29.8082 43.0575 28.7286 44.1371 28.7286 45.4708C28.7286 46.6139 29.5542 47.63 30.6973 47.8205C30.8878 47.884 31.0148 47.884 31.1419 47.884C31.3959 47.884 31.6499 47.8205 31.9039 47.757C32.92 47.4395 33.4916 46.5504 33.4916 45.4708C33.4916 44.1371 32.4755 43.0575 31.1419 43.0575ZM31.1419 44.1371C31.9039 44.1371 32.4755 44.7722 32.4755 45.4708C32.4755 46.1693 31.8404 46.8679 31.1419 46.8679C30.4433 46.8679 29.8082 46.1693 29.8082 45.4708C29.8082 44.7087 30.4433 44.1371 31.1419 44.1371Z" fill="#89242E"/>
<path d="M38.0641 49.1542C36.7304 49.1542 35.6508 50.2338 35.6508 51.5674C35.6508 52.647 36.4129 53.5996 37.429 53.8537C37.683 53.9172 37.8736 53.9807 38.1276 53.9807C38.3816 53.9807 38.5721 53.9172 38.8262 53.8537C39.9058 53.5996 40.6044 52.647 40.6044 51.5674C40.5408 50.2338 39.4612 49.1542 38.0641 49.1542ZM38.0641 50.2338C38.8262 50.2338 39.4612 50.8688 39.4612 51.5674C39.4612 52.266 38.7627 52.9646 38.0641 52.9646C37.302 52.9646 36.7304 52.266 36.7304 51.5674C36.794 50.8053 37.3655 50.2338 38.0641 50.2338Z" fill="#89242E"/>
<path d="M24.4102 50.1703C23.0765 50.1703 21.9969 51.2499 21.9969 52.5835C21.9969 53.9172 23.0765 54.9968 24.4102 54.9968C24.8547 54.9968 25.2357 54.8062 25.6168 54.6157C25.9978 54.3617 26.3789 54.1077 26.5059 53.5996C26.6964 53.2821 26.8234 52.8375 26.8234 52.52C26.8234 51.2499 25.7438 50.1703 24.4102 50.1703ZM24.4102 51.1864C25.1722 51.1864 25.7438 51.8849 25.7438 52.5835C25.7438 53.3456 25.2357 53.9172 24.4102 53.9172C23.6481 53.9172 23.0765 53.2821 23.0765 52.5835C23.0765 51.8849 23.6481 51.1864 24.4102 51.1864Z" fill="#89242E"/>
<path d="M40.9854 67.4441V57.6641L44.1607 54.6157V47.757V47.249H45.4944V47.8205V55.1873L42.319 58.2991V67.2536L40.9854 67.4441Z" fill="#89242E"/>
<path d="M50.0668 53.2821L50.9559 54.1712L50.5114 54.6157L47.3361 57.7911V66.174C46.8915 66.301 46.447 66.428 46.0024 66.4915V57.283L49.5588 53.7266L50.0668 53.2821Z" fill="#89242E"/>
<path d="M42.5731 45.4708C42.5731 46.5504 43.2081 47.4395 44.1607 47.757C44.4148 47.884 44.6688 47.884 44.9228 47.884C45.0498 47.884 45.2403 47.884 45.3674 47.8205C46.447 47.5665 47.3361 46.6139 47.3361 45.4708C47.3361 44.1371 46.2564 43.0575 44.9228 43.0575C43.5892 43.0575 42.5731 44.1371 42.5731 45.4708ZM46.32 45.4708C46.32 46.2329 45.6849 46.8679 44.9863 46.8679C44.2877 46.8679 43.6527 46.1693 43.6527 45.4708C43.6527 44.7087 44.2877 44.1371 44.9863 44.1371C45.6849 44.1371 46.32 44.7087 46.32 45.4708Z" fill="#89242E"/>
<path d="M49.3048 52.5835C49.3048 52.9646 49.4318 53.3456 49.6223 53.6631C49.7493 54.1077 50.1304 54.4252 50.5114 54.6792C50.8924 54.8063 51.2735 55.0603 51.718 55.0603C53.0517 55.0603 54.1313 53.9807 54.1313 52.647C54.1313 51.3134 53.0517 50.2338 51.718 50.2338C50.3844 50.1703 49.3048 51.2499 49.3048 52.5835ZM53.0517 52.5835C53.0517 53.3456 52.4166 53.9172 51.718 53.9172C50.9559 53.9172 50.3844 53.2821 50.3844 52.5835C50.3844 51.885 50.8924 51.1864 51.718 51.1864C52.4166 51.1864 53.0517 51.885 53.0517 52.5835Z" fill="#89242E"/>
<path d="M23.7219 51.0726L17.0298 44.4727L16.0934 45.4222L22.7854 52.0222L23.7219 51.0726Z" fill="#89242E"/>
<path d="M23.013 38.4215L29.6812 45.0262L30.6338 44.0736L24.4737 38.0405L23.013 38.4215Z" fill="#89242E"/>
<path d="M61.498 30.7372V29.4036H75.533C75.5965 29.6576 75.5965 29.8481 75.5965 30.1657C75.5965 30.3562 75.5965 30.6102 75.533 30.8007H61.498V30.7372Z" fill="#89242E"/>
<path d="M59.5929 32.4519C60.6725 32.4519 61.6251 31.6898 61.8791 30.6737C61.9426 30.4197 62.0061 30.2292 62.0061 29.9751C62.0061 29.7211 61.9426 29.5306 61.8791 29.2766C61.6251 28.1969 60.6725 27.4984 59.5929 27.4984C58.2592 27.4984 57.1796 28.578 57.1796 29.9116C57.1796 31.3723 58.2592 32.4519 59.5929 32.4519ZM59.5929 28.705C60.3549 28.705 60.99 29.3401 60.99 30.0386C60.99 30.7372 60.2914 31.4358 59.5929 31.4358C58.8308 31.4358 58.2592 30.7372 58.2592 30.0386C58.2592 29.3401 58.8308 28.705 59.5929 28.705Z" fill="#89242E"/>
<path d="M75.4695 32.96H65.6895L62.6412 36.1353H55.7189H55.2744V37.4054H55.846H63.2127L66.3246 34.2936H75.3425L75.4695 32.96Z" fill="#89242E"/>
<path d="M61.3075 42.0414L62.1966 42.9305L62.6412 42.486L65.8165 39.3106H74.1994C74.3264 38.8661 74.4534 38.4215 74.5169 37.977H65.3084L61.7521 41.5334L61.3075 42.0414Z" fill="#89242E"/>
<path d="M51.083 36.8974C51.083 38.231 52.1626 39.3106 53.4962 39.3106C54.6393 39.3106 55.6554 38.485 55.846 37.3419C55.9095 37.1514 55.9095 37.0244 55.9095 36.8974C55.9095 36.6433 55.846 36.3893 55.7825 36.1353C55.4649 35.1192 54.5758 34.5476 53.4962 34.5476C52.1626 34.5476 51.083 35.6272 51.083 36.8974ZM52.1626 36.8974C52.1626 36.1353 52.7976 35.5637 53.4962 35.5637C54.1948 35.5637 54.8934 36.1988 54.8934 36.8974C54.8934 37.5959 54.1948 38.231 53.4962 38.231C52.7341 38.2945 52.1626 37.6595 52.1626 36.8974Z" fill="#89242E"/>
<path d="M58.1322 43.6926C58.1322 45.0262 59.2118 46.1058 60.5455 46.1058C61.8791 46.1058 62.9587 45.0262 62.9587 43.6926C62.9587 43.248 62.7682 42.867 62.5777 42.486C62.3236 42.1049 62.0696 41.7239 61.5616 41.5969C61.244 41.4063 60.7995 41.2793 60.4819 41.2793C59.2753 41.2793 58.1322 42.2954 58.1322 43.6926ZM59.2118 43.6926C59.2118 42.9305 59.9104 42.3589 60.609 42.3589C61.371 42.3589 61.9426 42.867 61.9426 43.6926C61.9426 44.4547 61.3075 45.0262 60.609 45.0262C59.9104 45.0262 59.2118 44.3912 59.2118 43.6926Z" fill="#89242E"/>
<path d="M53.5032 52.0496L60.1952 45.4496L59.2588 44.5001L52.5667 51.1001L53.5032 52.0496Z" fill="#89242E"/>
<path d="M53.3057 38.4215L46.574 45.0262L45.6214 44.0736L51.845 38.0405L53.3057 38.4215Z" fill="#89242E"/>
<path d="M31.9674 11.2407L35.1428 8.06536V3.6199C35.2698 3.6199 36.0319 3.49288 36.4764 3.55639V8.63692L32.92 12.1933" fill="#89242E"/>
<path d="M33.7456 12.8919C33.7456 12.5108 33.6186 12.1298 33.4281 11.8122C33.3011 11.3677 32.92 11.0502 32.539 10.7961C32.158 10.6691 31.7769 10.4151 31.3324 10.4151C29.9987 10.4151 28.9191 11.4947 28.9191 12.8283C28.9191 14.162 29.9987 15.2416 31.3324 15.2416C32.666 15.3686 33.7456 14.289 33.7456 12.8919ZM29.9987 12.8919C29.9987 12.1298 30.6338 11.5582 31.3324 11.5582C32.0945 11.5582 32.666 12.1933 32.666 12.8919C32.666 13.5904 32.158 14.289 31.3324 14.289C30.6338 14.289 29.9987 13.6539 29.9987 12.8919Z" fill="#89242E"/>
<path d="M43.9067 11.2407L40.7314 8.06536V3.6199C40.6044 3.6199 39.8423 3.49288 39.3977 3.55639V8.63692L42.9541 12.1933" fill="#89242E"/>
<path d="M44.5418 15.3686C45.8754 15.3686 46.955 14.289 46.955 12.9554C46.955 11.6217 45.8754 10.5421 44.5418 10.5421C44.0972 10.5421 43.7162 10.7326 43.3351 10.9232C42.9541 11.1772 42.5731 11.4312 42.4461 11.9393C42.2555 12.2568 42.1285 12.7013 42.1285 13.0189C42.1285 14.289 43.2081 15.3686 44.5418 15.3686ZM44.5418 14.289C43.7797 14.289 43.2081 13.5904 43.2081 12.8919C43.2081 12.1298 43.7162 11.5582 44.5418 11.5582C45.3039 11.5582 45.8754 12.1933 45.8754 12.8919C45.8754 13.6539 45.2403 14.289 44.5418 14.289Z" fill="#89242E"/>
</svg>
