<svg width="65" height="79" viewBox="0 0 65 79" fill="none" xmlns="http://www.w3.org/2000/svg">
<g clip-path="url(#clip0_11_2)">
<path d="M32.9706 77.9995C37.1524 71.2272 43.6689 71.0534 52.9294 61.7214C66.0362 48.5114 65.7163 29.4598 64.025 11.4808C55.1706 13.1416 38.821 4.62135 32.9706 0.853516C27.1202 4.62135 10.7711 13.2532 1.91668 11.5997C0.223603 29.5787 -0.507469 48.5907 12.5988 61.8007C21.8594 71.1323 28.7898 71.2272 32.9706 77.9995Z" fill="#F1C350"/>
<path fill-rule="evenodd" clip-rule="evenodd" d="M32.9706 77.9995C28.7898 71.2272 21.8594 71.1323 12.5988 61.8007C-0.507469 48.5907 0.223603 29.5787 1.91668 11.5997C10.7711 13.2532 27.1202 4.62135 32.9706 0.853516C38.821 4.62135 55.1706 13.1416 64.025 11.4808C65.7163 29.4598 66.0362 48.5114 52.9294 61.7214C43.6689 71.0534 37.1759 71.1894 32.9946 77.9613L32.9706 77.9995Z" stroke="black" stroke-width="0.751353"/>
<path d="M19.5951 54.0937C11.7616 52.6948 4.3085 47.7593 3.21973 31.0419L5.26267 33.8874C5.70749 32.7512 6.14493 31.7578 6.58238 30.6211C7.96339 47.7925 16.5648 50.9182 24.0207 51.1865L25.3667 51.2049C28.3744 51.1814 31.1894 50.7933 33.0259 50.833C34.8273 50.7933 37.5317 51.1833 40.5353 51.2049L41.8822 51.1884C49.3275 50.9362 58.0054 47.8428 59.3901 30.6211C59.8271 31.7578 60.2645 32.7512 60.7024 33.8874L62.744 31.0419C61.6589 47.8681 54.1177 52.7528 46.2603 54.1205L40.0084 54.6718C37.6313 54.7852 36.2258 54.1956 33.0259 54.1956C29.6462 54.203 28.2582 54.7386 25.7442 54.6552L19.5951 54.0937Z" fill="white" stroke="black" stroke-width="0.253524"/>
<path fill-rule="evenodd" clip-rule="evenodd" d="M6.35146 37.758C6.39156 37.7658 6.43074 37.758 6.47131 37.7497C6.74926 37.6944 6.80458 37.4879 6.74142 37.1703L6.66952 36.8121L6.35146 36.8762V36.6287L6.80457 36.542L6.90829 37.0666C6.9318 37.1615 6.93963 37.2496 6.93963 37.321V37.4399C6.92396 37.829 6.69302 37.9484 6.51049 37.9885C6.45517 37.9963 6.3994 37.9963 6.35146 37.9963V37.758ZM5.93061 36.9628L5.99422 37.2731C6.06475 37.6312 6.20902 37.7428 6.35146 37.758V37.9963C6.17676 37.9728 6.01727 37.8534 5.92231 37.6704L5.08015 38.283L5.02437 38.0203L5.84303 37.4399L5.75591 36.9956L4.85797 37.1776L4.80957 36.9393L6.35146 36.6287V36.8762L5.93061 36.9628Z" fill="black"/>
<path fill-rule="evenodd" clip-rule="evenodd" d="M7.27401 39.4358L7.02786 38.4821L6.35994 38.6489L6.5351 39.3325L6.35165 39.3805L6.17694 38.6964L5.41407 38.8955L5.67635 39.9041L5.49335 39.952L5.17529 38.7052L7.14725 38.2041L7.44825 39.3961L7.27401 39.4358Z" fill="black"/>
<path fill-rule="evenodd" clip-rule="evenodd" d="M5.69989 40.6352L5.62891 40.4047L7.5603 39.7773L7.67185 40.1355L6.4305 41.4939L7.95764 41.0012L8.02955 41.2229L6.09677 41.8595L6.02579 41.6295L7.45658 40.0631L5.69989 40.6352Z" fill="black"/>
<path fill-rule="evenodd" clip-rule="evenodd" d="M7.51214 43.2747C7.58359 43.2507 7.66333 43.2268 7.74261 43.1959C8.30682 42.9571 8.45018 42.6068 8.33079 42.3132C8.21924 42.0661 7.94958 41.9241 7.51214 42.0426V41.8043C7.98139 41.7093 8.33863 41.8909 8.49028 42.2496C8.67236 42.6787 8.45018 43.1553 7.8302 43.4181C7.71864 43.4573 7.61493 43.4974 7.51214 43.513V43.2747ZM7.28904 42.1219C6.71699 42.3611 6.5741 42.71 6.70132 43.0046C6.80504 43.2507 7.07515 43.395 7.51214 43.2747V43.513C7.05072 43.6006 6.68519 43.4259 6.54229 43.0677C6.35146 42.6312 6.5824 42.162 7.19408 41.8997C7.30517 41.8522 7.40888 41.8199 7.51214 41.8043V42.0426C7.44069 42.0587 7.36878 42.0905 7.28904 42.1219Z" fill="black"/>
<path fill-rule="evenodd" clip-rule="evenodd" d="M7.41676 44.8171L7.31396 44.6263L8.80745 43.1084L8.9273 43.3227L7.70347 44.5475L9.42006 44.2529L9.53115 44.459L7.41676 44.8171Z" fill="black"/>
<path fill-rule="evenodd" clip-rule="evenodd" d="M9.80169 45.1352L9.27666 45.2942V45.0789L9.82519 44.9199L10.0073 45.2066L9.27666 46.105V45.7542L9.80169 45.1352ZM9.27666 45.2942L8.74472 45.4611L9.07845 45.9856L9.27666 45.7542V46.105L8.65714 46.8605L8.52992 46.6522L8.9586 46.1295L8.56126 45.509L7.90947 45.6999L7.77441 45.4924L9.27666 45.0789V45.2942Z" fill="black"/>
<path fill-rule="evenodd" clip-rule="evenodd" d="M10.0401 46.7398C10.2227 46.9629 10.4541 47.2574 10.7237 47.0343C11.0012 46.8048 10.7717 46.5415 10.5877 46.3111L10.437 46.1359L10.0401 46.4618V46.1525L10.4296 45.834L10.826 46.3203C10.9855 46.5259 11.0496 46.6937 11.0574 46.8356V46.8596C11.0496 47.0186 10.9699 47.1389 10.8823 47.2173C10.7076 47.3519 10.4928 47.3519 10.3019 47.2021C10.413 47.4552 10.3812 47.687 10.1826 47.853C10.1351 47.8848 10.0959 47.9175 10.0401 47.941V47.6543C10.1908 47.5192 10.2475 47.345 10.0401 47.0343V46.7398ZM10.0401 46.7398V47.0343C10.0161 47.0025 9.98388 46.9629 9.95254 46.9228L9.76216 46.6849L9.14172 47.1864L9.32472 47.4077C9.66675 47.8299 9.84882 47.8133 10.0161 47.6709C10.0235 47.6709 10.0323 47.6621 10.0401 47.6543V47.941C9.84882 48.0203 9.57963 48.012 9.2694 47.6225L8.85547 47.1141L10.0401 46.1525V46.4618L9.9046 46.5729L10.0401 46.7398Z" fill="black"/>
<path fill-rule="evenodd" clip-rule="evenodd" d="M10.2303 48.7114L10.0635 48.5445L11.5335 47.1377L11.7003 47.3032L10.2303 48.7114Z" fill="black"/>
<path fill-rule="evenodd" clip-rule="evenodd" d="M12.8062 48.5756L12.3531 48.17L11.121 49.5528L10.9375 49.3943L12.1696 48.0109L11.7165 47.6141L11.8364 47.4707L12.9251 48.4406L12.8062 48.5756Z" fill="black"/>
<path fill-rule="evenodd" clip-rule="evenodd" d="M13.4096 50.4833C13.092 50.929 12.6947 50.8101 12.425 50.6275C12.1623 50.4441 11.9166 50.1104 12.2254 49.6655L13.0201 48.5127L13.2197 48.6482L12.5043 49.6729C12.3287 49.9361 12.1701 50.2062 12.5435 50.4607C12.9173 50.723 13.116 50.4833 13.299 50.2214L14.0066 49.1968L14.2048 49.3323L13.4096 50.4833Z" fill="black"/>
<path fill-rule="evenodd" clip-rule="evenodd" d="M14.6886 50.6349C14.9514 50.7151 15.0708 50.6114 15.1418 50.4763C15.269 50.2292 15.1496 50.0545 14.8638 49.9033L14.6886 49.8084V49.6014L14.8873 49.7051C15.2939 49.919 15.4128 50.1421 15.4202 50.3334V50.3578C15.4128 50.444 15.3888 50.5316 15.3487 50.5948C15.2376 50.81 14.991 50.9055 14.7287 50.8497L14.6886 51.5489V50.6349ZM14.1881 50.397L14.4669 50.5478C14.5545 50.5869 14.6255 50.6183 14.6886 50.6349V51.5489L14.6734 51.8914L14.4347 51.7716L14.4987 50.7699L14.1009 50.5561L13.6713 51.3655L13.4644 51.2553L14.4107 49.459L14.6886 49.6014V49.8084L14.5379 49.7277L14.1881 50.397Z" fill="black"/>
<path fill-rule="evenodd" clip-rule="evenodd" d="M17.5427 52.288C17.3685 52.8052 16.9467 52.8052 16.6448 52.7102C16.3429 52.607 16.0004 52.3516 16.1755 51.8363L16.613 50.5078L16.8361 50.588L16.4461 51.7731C16.3507 52.0737 16.2788 52.3687 16.7089 52.5111C17.1376 52.6535 17.2652 52.3687 17.3607 52.0737L17.7497 50.8899L17.9802 50.9614L17.5427 52.288Z" fill="black"/>
<path fill-rule="evenodd" clip-rule="evenodd" d="M19.5225 51.5089L18.9339 51.3734L18.5126 53.1785L18.2821 53.1227L18.6956 51.3268L18.1069 51.1821L18.1475 51.0088L19.5622 51.3347L19.5225 51.5089Z" fill="black"/>
<path fill-rule="evenodd" clip-rule="evenodd" d="M27.4069 52.9078L27.7162 52.8912L27.4069 52.0099V51.6992H27.5175L28.2652 53.6951L28.0186 53.7104L27.7798 53.0752L27.4069 53.0904V52.9078ZM27.3511 51.8421H27.3428L27.0962 52.923L27.4069 52.9078V53.0904L27.0492 53.1065L26.8819 53.7666L26.6357 53.7744L27.1764 51.7154L27.4069 51.6992V52.0099L27.3511 51.8421Z" fill="black"/>
<path fill-rule="evenodd" clip-rule="evenodd" d="M29.5833 53.4797H29.64C29.9498 53.4558 30.2042 53.1778 30.1641 52.5583C30.1249 51.9775 29.8705 51.7244 29.5833 51.7161V51.54C30.0212 51.5488 30.3633 51.906 30.4024 52.5426C30.4269 52.9395 30.3232 53.512 29.759 53.6314C29.8147 53.878 30.0051 53.878 30.148 53.8692L30.3075 53.8609L30.3232 54.0449L30.1641 54.0522C29.9097 54.0684 29.6958 54.0522 29.5833 53.8144V53.4797ZM29.0039 52.6302C29.0362 53.2096 29.2906 53.4645 29.5833 53.4797V53.8144C29.5603 53.7664 29.5446 53.7102 29.5285 53.6475C28.9638 53.5996 28.7896 53.0423 28.7651 52.6449V52.4384C28.7896 51.8991 29.0989 51.564 29.5123 51.54H29.5833V51.7161H29.5285C29.2109 51.7318 28.9638 52.0171 29.0039 52.6302Z" fill="black"/>
<path fill-rule="evenodd" clip-rule="evenodd" d="M32.613 52.8213C32.6287 53.3689 32.2392 53.5206 31.9216 53.5284C31.5957 53.5353 31.1983 53.4173 31.1739 52.8771L31.126 51.4772L31.3657 51.4693L31.4122 52.7171C31.4205 53.0356 31.4602 53.3376 31.9128 53.3214C32.3664 53.3062 32.3821 52.9955 32.3664 52.6858L32.3263 51.438L32.5655 51.4297L32.613 52.8213Z" fill="black"/>
<path fill-rule="evenodd" clip-rule="evenodd" d="M33.4077 53.4698L33.4308 51.4375L33.6691 51.4403L33.646 53.4721L33.4077 53.4698Z" fill="black"/>
<path fill-rule="evenodd" clip-rule="evenodd" d="M34.6953 53.3214L35.6564 53.3772L35.6486 53.5606L34.4487 53.4966L34.5511 51.4619L34.7903 51.4776L34.6953 53.3214Z" fill="black"/>
<path fill-rule="evenodd" clip-rule="evenodd" d="M37.0962 51.7478L37.0399 51.9064V51.6128L37.2787 51.6285L37.8028 53.6954L37.5576 53.6792L37.3907 53.0192L37.0399 52.9961V52.8126L37.3506 52.8371L37.0962 51.7478ZM37.0399 51.9064L36.7306 52.797L37.0399 52.8126V52.9961L36.6587 52.9717L36.4195 53.6078L36.1816 53.5917L36.945 51.6045L37.0399 51.6128V51.9064Z" fill="black"/>
<path fill-rule="evenodd" clip-rule="evenodd" d="M39.7269 51.9302L38.7321 51.891L38.7086 52.5829L39.4167 52.6142L39.4088 52.7967L38.7008 52.7654L38.6695 53.5601L39.7269 53.6002L39.7181 53.7823L38.4229 53.7265L38.5026 51.6992L39.7347 51.7476L39.7269 51.9302Z" fill="black"/>
<path fill-rule="evenodd" clip-rule="evenodd" d="M48.5971 52.3283C48.7239 52.7971 48.4533 52.9791 48.2155 53.0423C48.009 53.099 47.7863 53.0423 47.6743 52.8763L47.8578 52.7247C47.9057 52.8284 48.0329 52.8832 48.1602 52.8519C48.3427 52.804 48.4294 52.6219 48.3667 52.3914L47.9767 50.9606L48.2076 50.8975L48.5971 52.3283Z" fill="black"/>
<path fill-rule="evenodd" clip-rule="evenodd" d="M50.5753 51.5335C50.7661 52.042 50.4402 52.313 50.147 52.4232C49.8451 52.5343 49.4238 52.5596 49.2325 52.0498L48.7314 50.7467L48.9536 50.6596L49.3989 51.8202C49.5105 52.1134 49.6451 52.3997 50.0756 52.2323C50.4955 52.0738 50.4084 51.7728 50.2973 51.4773L49.852 50.318L50.0756 50.2295L50.5753 51.5335Z" fill="black"/>
<path fill-rule="evenodd" clip-rule="evenodd" d="M52.0936 51.4855L51.9027 51.5887L50.3691 50.0948L50.583 49.9823L51.8156 51.1992H51.8234L51.5211 49.4826L51.7202 49.3711L52.0936 51.4855Z" fill="black"/>
<path fill-rule="evenodd" clip-rule="evenodd" d="M53.1034 48.6322L52.2917 49.2047L52.6983 49.7699L53.2703 49.3569L53.3819 49.508L52.8006 49.9201L53.2629 50.5636L54.1208 49.9524L54.2314 50.0953L53.1753 50.8513L51.9902 49.1969L52.9919 48.4824L53.1034 48.6322Z" fill="black"/>
<path fill-rule="evenodd" clip-rule="evenodd" d="M54.9707 49.4665L54.8057 49.6334L53.3984 48.1625L53.6672 47.9007L55.4322 48.434L54.3282 47.2719L54.4946 47.1064L55.9019 48.576L55.7341 48.7428L53.6994 48.1311L54.9707 49.4665Z" fill="black"/>
<path fill-rule="evenodd" clip-rule="evenodd" d="M55.7899 45.8085L55.4091 46.2869L56.8547 47.4393L56.7122 47.6302L55.2575 46.4773L54.8836 46.9535L54.7407 46.835L55.6465 45.6992L55.7899 45.8085Z" fill="black"/>
<path fill-rule="evenodd" clip-rule="evenodd" d="M57.8001 44.8971C58.2689 45.1829 58.1739 45.5876 58.0075 45.8655C57.8319 46.1361 57.5143 46.4076 57.0455 46.12L55.8613 45.3894L55.9876 45.1829L57.0455 45.8337C57.3156 46.0011 57.5941 46.1449 57.8319 45.7549C58.0711 45.3733 57.8176 45.1829 57.5549 45.0238L56.4887 44.3647L56.6159 44.166L57.8001 44.8971Z" fill="black"/>
<path fill-rule="evenodd" clip-rule="evenodd" d="M57.8642 42.87C57.6254 42.8372 57.4115 42.8534 57.2848 43.1166C57.1972 43.2987 57.252 43.5365 57.4272 43.6241C57.8881 43.8398 58.1831 42.758 58.8262 43.0682C59.1442 43.2194 59.2152 43.5775 59.0562 43.9186C58.881 44.2842 58.5556 44.451 58.2057 44.3704L58.2541 44.1413C58.5003 44.1966 58.7704 44.1012 58.8972 43.8477C58.993 43.6328 58.9373 43.3862 58.7386 43.2908C58.2306 43.0516 57.9679 44.1491 57.3562 43.8546C57.0543 43.7117 56.9819 43.3549 57.1331 43.0281C57.2848 42.7022 57.6019 42.5989 57.9047 42.6469L57.8642 42.87Z" fill="black"/>
<path fill-rule="evenodd" clip-rule="evenodd" d="M58.6424 39.6344L58.4599 40.2147L60.224 40.7711L60.1534 40.9942L58.388 40.4364L58.2055 41.0177L58.0308 40.9619L58.4682 39.5781L58.6424 39.6344Z" fill="black"/>
<path fill-rule="evenodd" clip-rule="evenodd" d="M60.2883 38.0446C60.8207 38.1714 60.8604 38.5936 60.7815 38.9034C60.7092 39.2132 60.487 39.5626 59.9541 39.4432L58.5957 39.1177L58.6515 38.8868L59.8675 39.1818C60.1777 39.2528 60.4787 39.3003 60.5824 38.8555C60.6935 38.4189 60.4003 38.3152 60.0897 38.2433L58.8806 37.9492L58.9368 37.7188L60.2883 38.0446Z" fill="black"/>
<path fill-rule="evenodd" clip-rule="evenodd" d="M59.859 36.7814L60.3038 36.9958L60.4075 36.3836L59.859 36.4468V36.2246L61.3137 36.0264L61.2737 36.2725L60.5983 36.3601L60.4716 37.0829L61.075 37.3926L61.0353 37.6314L59.859 37.0193V36.7814ZM59.3026 36.5104L59.859 36.7814V37.0193L59.144 36.6454L59.1994 36.3122L59.859 36.2246V36.4468L59.3026 36.5104Z" fill="black"/>
<path d="M13.186 62.382C21.0951 70.4283 29.0603 71.4825 32.9711 77.999C37.0353 71.3553 43.6435 70.9926 52.6344 62.0012C47.5316 59.3406 44.6913 54.6545 44.5336 54.3651C44.2082 54.1936 43.7357 54.0216 43.4292 53.9493C43.4292 54.2766 43.9275 54.9841 44.399 55.4202C43.756 56.243 44.8544 56.7911 43.7873 57.6056C43.9685 56.7791 43.1544 55.829 42.8179 56.071C42.2335 55.1178 42.1076 53.3897 41.649 53.6469C41.2793 55.4359 40.4302 55.175 39.7259 56.0157C39.4917 56.2504 38.6477 57.228 38.2158 57.6618C37.8415 56.384 37.535 55.4566 37.2021 54.5232C33.91 54.0433 31.1254 54.1249 28.4924 54.531C28.2924 55.0376 27.6687 56.7998 27.4465 57.7807C26.6767 57.4101 25.7115 56.0116 25.3898 55.4736C24.4522 54.9316 24.3139 54.4434 24.1249 53.6469C23.6547 53.398 23.5584 55.1178 22.9569 56.071C22.7084 55.8493 21.8201 56.6459 21.9865 57.6056C20.9199 56.7984 22.0267 56.1969 21.3827 55.4202C21.7021 55.1007 22.3069 54.4185 22.3521 53.9525C22.0612 54.0157 21.5509 54.1973 21.2536 54.3632C21.1794 54.3817 21.143 54.3973 21.1084 54.4314C20.9217 54.59 20.7272 55.1252 20.4765 55.2118C19.9224 56.2587 16.7879 60.6773 13.186 62.382Z" fill="#9C9650" stroke="black" stroke-width="0.502439"/>
<path d="M30.0562 50.9673C30.0562 50.9673 31.7856 47.3525 32.9131 47.3525C34.0411 47.3525 35.6816 50.9484 35.6816 50.9484C33.948 50.7871 31.6741 50.8115 30.0562 50.9673Z" fill="#9C9650" stroke="black" stroke-width="0.502439"/>
<path d="M28.6533 73.4134C29.4402 73.9698 30.5289 74.9166 31.0936 75.5352C33.3108 69.4709 45.9704 67.9221 47.2339 57.8447C44.7544 64.0192 30.7281 67.3731 28.6533 73.4134Z" fill="white" stroke="black" stroke-width="0.253524"/>
<path fill-rule="evenodd" clip-rule="evenodd" d="M30.7836 72.2842C30.5849 72.2128 30.3937 72.1814 30.2512 72.3796C30.1553 72.5152 30.1632 72.7217 30.3075 72.8245C30.6721 73.095 31.0703 72.2607 31.5857 72.6341C31.841 72.8245 31.8567 73.1351 31.6654 73.3891C31.4667 73.6606 31.1644 73.7307 30.8707 73.5961L30.9509 73.4209C31.1496 73.5085 31.4041 73.4845 31.5387 73.2942C31.658 73.1425 31.6419 72.9203 31.4833 72.8092C31.0772 72.5073 30.7039 73.3647 30.2111 72.9992C29.9737 72.8245 29.9567 72.5152 30.1318 72.2768C30.3075 72.039 30.5919 72.0058 30.8472 72.1091L30.7836 72.2842Z" fill="black"/>
<path fill-rule="evenodd" clip-rule="evenodd" d="M32.2214 70.9097C32.0389 70.7898 31.8241 70.6948 31.6332 70.8691C31.4419 71.0443 31.435 71.3706 31.8162 71.7758C32.1901 72.1814 32.5072 72.2045 32.699 72.0302C32.8737 71.8634 32.8179 71.626 32.7063 71.4416L32.8658 71.3466C33.0318 71.6089 33.0484 71.9182 32.8101 72.1492C32.5233 72.4119 32.0707 72.3483 31.665 71.9104C31.2603 71.4665 31.2368 71.0129 31.5222 70.7506C31.7692 70.528 32.0707 70.575 32.3251 70.7585L32.2214 70.9097Z" fill="black"/>
<path fill-rule="evenodd" clip-rule="evenodd" d="M32.5156 69.9709L32.6885 69.8418L33.7717 71.291L33.5993 71.4201L32.5156 69.9709Z" fill="black"/>
<path fill-rule="evenodd" clip-rule="evenodd" d="M34.1055 69.0261L33.4297 69.4871L33.7796 70.0034L34.2645 69.6701L34.3599 69.8061L33.875 70.1384L34.2724 70.7197L34.9956 70.2255L35.091 70.362L34.2097 70.9649L33.1753 69.4627L34.0101 68.8906L34.1055 69.0261Z" fill="black"/>
<path fill-rule="evenodd" clip-rule="evenodd" d="M35.6792 69.9791L35.5118 70.0833L34.5503 68.54L34.8135 68.375L36.2033 69.2006L36.2116 69.1923L35.4487 67.9768L35.6165 67.873L36.5863 69.4154L36.4185 69.5182L34.8047 68.5723V68.5811L35.6792 69.9791Z" fill="black"/>
<path fill-rule="evenodd" clip-rule="evenodd" d="M37.1098 67.1571L36.6802 67.4203L37.5473 68.8262L37.3809 68.9299L36.5138 67.5222L36.0842 67.7771L35.9976 67.6425L37.0306 67.0146L37.1098 67.1571Z" fill="black"/>
<path fill-rule="evenodd" clip-rule="evenodd" d="M38.5092 68.2387L38.3341 68.3429L37.3804 66.8005L37.5477 66.6973L38.5092 68.2387Z" fill="black"/>
<path fill-rule="evenodd" clip-rule="evenodd" d="M38.8351 67.1512L39.2085 66.911L38.8351 66.5778V66.3404L39.9626 67.301L39.7971 67.4126L39.3357 67.023L38.8351 67.3411V67.1512ZM38.8351 68.0325L39.0098 67.9284L38.8351 67.3886V68.0325ZM38.4691 66.2523L38.7794 67.1899L38.8351 67.1512V67.3411L38.8268 67.3489L38.8351 67.3886V68.0325L38.2861 66.2196L38.5254 66.0693L38.8351 66.3404V66.5778L38.4691 66.2523Z" fill="black"/>
<path fill-rule="evenodd" clip-rule="evenodd" d="M40.1543 65.1399L39.4869 65.6156L39.8524 66.1245L40.3212 65.7834L40.4171 65.9175L39.9478 66.2609L40.3608 66.8325L41.0679 66.3236L41.1643 66.4587L40.2885 67.0786L39.2324 65.6013L40.0594 65.0117L40.1543 65.1399Z" fill="black"/>
<path d="M22.3594 69.4717C23.409 70.099 24.6406 70.8306 25.634 71.4192C26.4605 67.1425 37.4445 62.4306 38.2152 57.6611C37.5556 59.2192 26.2941 61.8014 22.3594 69.4717Z" fill="white" stroke="black" stroke-width="0.253524"/>
<path fill-rule="evenodd" clip-rule="evenodd" d="M25.594 69.671L26.0315 69.0035L26.1661 69.0989L25.618 69.9259L24.1001 68.9247L24.2107 68.7578L25.594 69.671Z" fill="black"/>
<path fill-rule="evenodd" clip-rule="evenodd" d="M25.1016 67.5572L25.2117 67.4268L26.6038 68.5971L26.4936 68.7276L25.1016 67.5572Z" fill="black"/>
<path fill-rule="evenodd" clip-rule="evenodd" d="M26.5802 66.2527L26.2225 66.6021L27.3836 67.7863L27.2481 67.9214L26.0791 66.7464L25.7219 67.0958L25.6104 66.9842L26.4696 66.1338L26.5802 66.2527Z" fill="black"/>
<path fill-rule="evenodd" clip-rule="evenodd" d="M27.8044 65.1804L27.4223 65.5063L28.5115 66.7537L28.3608 66.8892L27.2725 65.6331L26.8982 65.9673L26.7871 65.8396L27.6929 65.0527L27.8044 65.1804Z" fill="black"/>
<path fill-rule="evenodd" clip-rule="evenodd" d="M28.9648 64.2268L28.3287 64.7431L28.7182 65.2285L29.1718 64.8542L29.2751 64.9814L28.8215 65.3539L29.2658 65.9038L29.9494 65.3539L30.0536 65.482L29.2184 66.1578L28.0752 64.7431L28.8611 64.0996L28.9648 64.2268Z" fill="black"/>
<path fill-rule="evenodd" clip-rule="evenodd" d="M30.0058 64.2589L30.2045 64.1073C30.5069 63.8611 30.4663 63.6864 30.3552 63.5509C30.2524 63.4237 30.1326 63.391 30.0058 63.4403V63.273C30.2598 63.1932 30.4184 63.32 30.5147 63.4403C30.6493 63.6067 30.6493 63.8284 30.5304 64.0192L31.3329 64.4562L31.1665 64.5913L30.388 64.1631L30.0934 64.3926L30.6018 65.038L30.4502 65.1647L30.0058 64.6005V64.2589ZM29.9975 64.2663L30.0058 64.2589V64.6005L29.3218 63.7348L29.6638 63.4643C29.791 63.3601 29.91 63.2965 30.0058 63.273V63.4403C29.9418 63.4643 29.8782 63.5039 29.8155 63.5509L29.5762 63.7422L29.9975 64.2663Z" fill="black"/>
<path fill-rule="evenodd" clip-rule="evenodd" d="M31.4519 63.4085V63.4173L31.8502 63.0979L31.4519 62.8047V62.5816L32.6454 63.4173L32.4859 63.5441L31.9931 63.1942L31.516 63.5754L31.7548 64.1318L31.5958 64.2595L31.4519 63.9096V63.4085ZM31.0555 62.518H31.0468L31.4519 63.4085V63.9096L30.8721 62.5023L31.0869 62.3271L31.4519 62.5816V62.8047L31.0555 62.518Z" fill="black"/>
<path fill-rule="evenodd" clip-rule="evenodd" d="M32.6606 61.239L32.0401 61.7709L32.4375 62.2388L32.8832 61.8663L32.9865 61.9936L32.5417 62.3665L32.9865 62.9067L33.6622 62.3513L33.7655 62.4697L32.9538 63.1612L31.7783 61.7709L32.5569 61.1191L32.6606 61.239Z" fill="black"/>
<path d="M16.3413 65.2252C20.1963 59.0811 25.9056 59.7306 27.424 57.8301C26.5168 62.8462 20.0764 64.5171 19.4486 67.5543C18.0026 66.5292 17.136 65.9087 16.3413 65.2252Z" fill="white" stroke="black" stroke-width="0.253524"/>
<path fill-rule="evenodd" clip-rule="evenodd" d="M19.5138 65.1734C19.8632 65.4191 19.7996 65.681 19.6885 65.8487C19.5853 65.9916 19.4101 66.07 19.2433 66.0221L19.2751 65.8248C19.3631 65.8722 19.4742 65.84 19.5374 65.7533C19.6254 65.6169 19.5692 65.4514 19.3949 65.3399L18.2979 64.5917L18.4085 64.4258L19.5138 65.1734Z" fill="black"/>
<path fill-rule="evenodd" clip-rule="evenodd" d="M20.7298 63.8208C21.0557 64.1789 20.8967 64.4882 20.7063 64.6703C20.5076 64.8542 20.1886 64.9893 19.8549 64.6316L19.0054 63.7166L19.1478 63.5811L19.9111 64.4007C20.102 64.6072 20.3085 64.7906 20.5791 64.5362C20.8566 64.2817 20.6819 64.0665 20.4915 63.8609L19.736 63.0413L19.8793 62.9062L20.7298 63.8208Z" fill="black"/>
<path fill-rule="evenodd" clip-rule="evenodd" d="M21.5327 62.271C21.3584 62.1438 21.1916 62.064 20.9929 62.2074C20.8574 62.3028 20.8094 62.5098 20.9132 62.6517C21.1833 63.0173 21.8111 62.3258 22.1928 62.8435C22.3831 63.0966 22.3039 63.3985 22.0499 63.5907C21.7793 63.7889 21.4695 63.7654 21.2317 63.5506L21.3584 63.4072C21.5175 63.5506 21.7641 63.5976 21.9545 63.4552C22.113 63.3432 22.161 63.1293 22.0416 62.9776C21.7475 62.5725 21.1358 63.2796 20.7698 62.7882C20.5951 62.5489 20.6739 62.247 20.9132 62.0723C21.1519 61.8967 21.4299 61.9534 21.6452 62.1193L21.5327 62.271Z" fill="black"/>
<path fill-rule="evenodd" clip-rule="evenodd" d="M32.8901 9.08108C33.8277 9.08892 34.7583 9.19171 35.6553 9.37517C35.7203 8.92897 36.6574 7.20501 37.8734 6.56105C36.0213 6.64034 35.3064 7.47512 35.3064 7.47512L34.8934 5.7341L33.7161 7.44286L32.8818 5.4248H32.8901L32.0631 7.45161L30.8946 5.7424L30.4738 7.47512C30.4738 7.47512 29.7588 6.64034 27.9062 6.56105C29.1227 7.20501 30.0603 8.92897 30.1239 9.37517C31.0223 9.19171 31.952 9.0963 32.8818 9.08108" fill="black"/>
<path d="M32.8901 9.08108C33.8277 9.08892 34.7583 9.19171 35.6553 9.37517C35.7203 8.92897 36.6574 7.20501 37.8734 6.56105C36.0213 6.64034 35.3064 7.47512 35.3064 7.47512L34.8934 5.7341L33.7161 7.44286L32.8818 5.4248H32.8901L32.0631 7.45161L30.8946 5.7424L30.4738 7.47512C30.4738 7.47512 29.7588 6.64034 27.9062 6.56105C29.1227 7.20501 30.0603 8.92897 30.1239 9.37517C31.0223 9.19171 31.952 9.0963 32.8818 9.08108" stroke="black" stroke-width="0.230476" stroke-linecap="round" stroke-linejoin="round"/>
<path fill-rule="evenodd" clip-rule="evenodd" d="M32.8899 39.4675C33.2632 39.1734 33.5416 38.8402 33.7712 38.4497C32.8262 39.8971 33.9072 41.8917 33.0567 43.0445C33.4223 43.2349 34.2497 43.299 34.6784 42.9164C33.7795 44.8252 34.9323 44.992 33.9699 46.6372C34.4239 46.8677 35.0043 46.5261 35.0043 46.5261C35.0043 46.5261 35.1462 48.4492 34.7581 49.0613C36.5614 49.1093 37.2689 47.3452 37.3731 47.1143C37.8013 47.8688 36.3871 50.9457 36.3871 50.9457C36.3871 50.9457 38.0783 50.8987 38.8979 48.1565C39.4091 49.0065 40.8376 51.7727 41.069 53.2422C41.2041 53.4879 39.5981 55.2293 39.0901 55.4358C38.1913 55.8502 38.6997 56.9533 38.6997 56.9533C38.6997 56.9533 39.1293 55.8101 39.7249 56.0157C40.4163 55.2054 41.3064 55.4119 41.6567 53.6483C42.126 53.4003 42.2523 55.1892 42.8252 56.071C43.0636 55.8502 43.9693 56.6445 43.7951 57.6056C44.8608 56.7952 43.755 56.2227 44.3989 55.4197C43.413 54.4337 43.4291 53.9497 43.4291 53.9497C43.4291 53.9497 44.0495 54.1014 44.5257 54.3632C44.9083 54.3936 45.0355 55.476 45.6154 55.1892C46.5603 55.4838 46.5839 56.4287 46.5839 56.4287C46.5839 56.4287 47.2605 55.1017 46.3621 55.0625C47.2435 53.6796 44.0007 53.6958 45.1305 53.7114C44.7322 53.2735 44.1998 53.3058 43.6125 53.1232C43.0235 52.9402 42.5547 52.979 41.9107 51.5256C41.2677 50.0704 40.4712 47.9878 40.4712 47.9878L40.4343 47.2811C40.4343 47.2811 41.7443 49.3245 44.7322 48.569C43.413 48.1394 42.9451 47.0507 42.9451 47.0507C42.9451 47.0507 43.7951 47.1382 44.1597 46.7008C42.0384 44.7454 42.3804 44.2043 42.3804 44.2043C42.3804 44.2043 43.04 44.1088 43.4927 43.6954C42.0868 43.4174 41.0994 41.3749 41.0994 41.3749C41.0994 41.3749 41.7913 41.487 42.2762 41.3353C40.544 40.2152 39.853 38.3151 39.853 38.3151C39.853 38.3151 46.3216 41.5819 51.2584 38.1003C43.2387 39.5155 41.6014 37.2264 41.6014 37.2264C41.6014 37.2264 41.7909 37.107 41.9098 36.9876C43.8896 37.9579 46.4889 38.1243 48.1419 37.7505C49.096 37.5366 44.3593 38.1142 42.1578 36.723C42.2781 36.5713 42.4113 36.3754 42.4509 36.2796C43.524 37.5117 52.49 37.6315 54.8902 34.5869C50.4628 36.7885 43.8536 35.6951 43.7656 35.2982C43.9403 35.1475 43.896 35.1959 44.1025 34.9894C45.5255 35.6803 49.4376 35.4061 50.5508 35.0723C51.3847 34.8257 46.2017 35.5863 44.3413 34.728C44.4602 34.5934 44.5372 34.4666 44.6243 34.3477C49.8386 35.3014 58.4751 32.2342 58.4751 30.1918C53.3327 33.2359 46.6433 33.8536 45.0862 33.2967C45.1729 32.8326 45.1761 32.7689 45.1899 32.5952C46.0883 32.6984 50.6859 32.8625 53.3958 31.464C54.9778 30.8993 50.2277 32.8704 45.3167 32.4099C45.443 32.1789 45.5767 32.0282 45.7039 31.7336C48.5328 32.497 60.2313 29.8184 60.3511 25.3679C54.7948 30.5739 45.626 30.4218 45.626 30.4218C45.626 30.4218 45.7684 30.1475 45.9118 29.8451C48.0736 29.6303 54.6519 28.6102 55.8439 27.3698C55.82 27.1559 53.8047 28.7301 45.9994 29.5801C46.0856 29.3948 46.1718 28.9753 46.1718 28.9753C46.1718 28.9753 60.8752 26.9573 60.5973 21.8305C56.918 26.5677 46.2427 27.3933 46.2427 27.3933C46.2427 27.3933 46.1879 27.0375 46.1542 26.8913C48.9195 26.4945 53.523 25.7256 56.2897 24.056C56.6944 23.6029 52.2301 26.0593 46.2128 26.5677C46.252 26.2428 46.2561 26.0957 46.2497 25.9326C46.2469 26.0819 60.2313 24.3344 61.2021 17.7691C57.8472 22.7921 46.0279 24.6124 46.0279 24.6124C46.0279 24.6124 45.8763 24.2114 45.7878 24.0081C45.9224 23.9786 53.229 23.2291 56.7746 20.5348C51.5999 23.094 45.6601 23.72 45.6209 23.6559C45.5568 23.5517 45.532 23.5024 45.4633 23.3881C45.2425 22.6967 60.1686 21.6558 61.0822 13.6122C56.9571 19.5341 48.4046 19.7088 47.9197 19.6525C41.4258 18.7067 42.8888 22.6017 42.7616 22.8953C42.8888 27.6648 39.9498 27.5039 38.9712 26.2414C39.1054 26.2262 39.121 26.2497 39.4866 26.1386C38.271 24.9143 37.2214 22.6967 37.2214 22.6967C37.2214 22.6967 37.6746 22.752 37.8732 22.7921C36.7794 21.4558 36.3392 19.1759 36.3392 19.1759C36.3392 19.1759 36.7291 19.3898 37.238 19.4705C34.9724 15.114 34.7092 13.143 34.6779 12.4598C34.7092 11.9104 35.3062 12.1335 36.1806 10.9096C35.043 11.3388 33.0844 11.1761 32.8825 11.1705C32.8825 11.1705 31.4927 11.0673 30.9031 10.9248C30.2749 10.7824 29.5913 11.077 29.6867 11.5218C29.7743 11.6407 29.5595 11.8555 29.5595 11.8555C29.5595 11.8555 28.4062 11.4337 27.1196 11.8076C26.8173 12.0224 27.1196 12.6825 26.7772 13.2301C26.8173 12.9364 27.6359 12.3953 27.9775 12.8489C28.3587 13.3891 29.7342 13.1033 29.901 13.8109C29.8609 14.3908 30.5846 15.639 28.5339 19.4778C29.0427 19.3985 29.4323 19.1759 29.4323 19.1759C29.4323 19.1759 28.9999 21.4558 27.906 22.7921C28.1052 22.752 28.5587 22.6967 28.5587 22.6967C28.5587 22.6967 27.5087 24.9143 26.2927 26.1386C26.6582 26.2497 26.6744 26.2262 26.809 26.2414C25.8294 27.5039 22.8909 27.6648 23.0186 22.8953C22.8909 22.6017 24.353 18.7067 17.8591 19.6525C17.3751 19.7088 8.82258 19.5341 4.69751 13.6122C5.61112 21.6558 20.5382 22.6967 20.316 23.3881C20.2478 23.5024 20.2224 23.5517 20.1588 23.6559C20.1196 23.72 14.1798 23.094 9.00512 20.5348C12.5503 23.2291 19.856 23.9786 19.9919 24.0081C19.9034 24.2114 19.7522 24.6124 19.7522 24.6124C19.7522 24.6124 7.93202 22.7921 4.57812 17.7691C5.54751 24.3344 19.5328 26.0819 19.5296 25.9326C19.5236 26.0957 19.5268 26.2428 19.5665 26.5677C13.5497 26.0593 9.08486 23.6029 9.49004 24.056C12.2567 25.7256 16.8588 26.4945 19.6255 26.8913C19.5918 27.0375 19.5365 27.3933 19.5365 27.3933C19.5365 27.3933 8.86176 26.5677 5.18243 21.8305C4.90402 26.9573 19.6075 28.9753 19.6075 28.9753C19.6075 28.9753 19.6942 29.3948 19.7799 29.5801C11.9746 28.7301 9.95975 27.1559 9.93532 27.3698C11.1278 28.6102 17.7056 29.6303 19.8675 29.8451C20.0104 30.1475 20.1533 30.4218 20.1533 30.4218C20.1533 30.4218 10.984 30.5739 5.42858 25.3679C5.54751 29.8184 17.2465 32.497 20.0758 31.7336C20.2035 32.0282 20.3363 32.1789 20.463 32.4099C15.5516 32.8704 10.8015 30.8993 12.3834 31.464C15.0934 32.8625 19.6905 32.6984 20.5889 32.5952C20.6032 32.7689 20.6073 32.8326 20.6935 33.2967C19.1355 33.8536 12.4471 33.2359 7.30466 30.1918C7.30466 32.2342 15.9411 35.3014 21.1549 34.3477C21.2416 34.4666 21.319 34.5934 21.4384 34.728C19.578 35.5863 14.3946 34.8257 15.2284 35.0723C16.3416 35.4061 20.2538 35.6803 21.6767 34.9894C21.8828 35.1959 21.839 35.1475 22.0137 35.2982C21.9261 35.6951 15.3165 36.7885 10.889 34.5869C13.2897 37.6315 22.2557 37.5117 23.3283 36.2796C23.368 36.3754 23.5007 36.5713 23.6219 36.723C21.4195 38.1142 16.6828 37.5366 17.6374 37.7505C19.2904 38.1243 21.8901 37.9579 23.8699 36.9876C23.9898 37.107 24.1783 37.2264 24.1783 37.2264C24.1783 37.2264 22.541 39.5155 14.5213 38.1003C19.4572 41.5819 25.9267 38.3151 25.9267 38.3151C25.9267 38.3151 25.2353 40.2152 23.503 41.3353C23.9879 41.487 24.6798 41.3749 24.6798 41.3749C24.6798 41.3749 23.6929 43.4174 22.287 43.6954C22.7397 44.1088 23.3993 44.2043 23.3993 44.2043C23.3993 44.2043 23.7409 44.7454 21.6196 46.7008C21.9846 47.1382 22.8351 47.0507 22.8351 47.0507C22.8351 47.0507 22.3658 48.1394 21.0466 48.569C24.0354 49.3245 25.345 47.2811 25.345 47.2811L25.309 47.9878C25.309 47.9878 24.512 50.0704 23.8681 51.5256C23.2251 52.979 22.7553 52.9402 22.1667 53.1232C21.579 53.3058 21.0466 53.2735 20.6497 53.7114C21.7781 53.6958 18.5353 53.6796 19.4176 55.0625C18.5192 55.1017 19.1949 56.4287 19.1949 56.4287C19.1949 56.4287 19.2189 55.4838 20.1652 55.1892C20.7442 55.476 20.8714 54.3936 21.254 54.3632C21.7302 54.1014 22.3506 53.9497 22.3506 53.9497C22.3506 53.9497 22.3658 54.4337 21.3808 55.4197C22.0247 56.2227 20.9198 56.7952 21.9846 57.6056C21.8099 56.6445 22.7162 55.8502 22.9545 56.071C23.527 55.1892 23.6537 53.4003 24.1225 53.6483C24.4729 55.4119 25.3625 55.2054 26.0544 56.0157C26.6499 55.8101 27.0795 56.9533 27.0795 56.9533C27.0795 56.9533 27.5884 55.8502 26.69 55.4358C26.1811 55.2293 24.5756 53.4879 24.7107 53.2422C24.9412 51.7727 26.3701 49.0065 26.8823 48.1565C27.7004 50.8987 29.3926 50.9457 29.3926 50.9457C29.3926 50.9457 27.9775 47.8688 28.4062 47.1143C28.5103 47.3452 29.2174 49.1093 31.0221 49.0613C30.6321 48.4492 30.7759 46.5261 30.7759 46.5261C30.7759 46.5261 31.3563 46.8677 31.8089 46.6372C30.8474 44.992 31.9998 44.8252 31.1018 42.9164C31.5305 43.299 32.3575 43.2349 32.7225 43.0445C31.8725 41.8917 32.953 39.8971 32.0076 38.4497C32.2376 38.8402 32.516 39.1734 32.8899 39.4675Z" fill="black" stroke="black" stroke-width="0.230476"/>
<path d="M31.2768 36.6855C31.5234 37.5443 31.8254 38.1403 32.0084 38.45M28.1686 45.4726C28.0893 46.077 28.2963 46.796 28.4069 47.1146M31.9443 12.4753C31.8166 13.1829 32.8902 13.3419 32.8902 13.3419M28.0972 12.9842C28.3756 12.4601 30.2918 13.4853 31.4672 13.3262M29.8142 11.6175C30.4268 11.6175 31.6507 11.2916 31.7216 12.102C31.7216 12.4279 31.3561 12.6187 30.9832 12.349C30.6089 12.078 30.7596 11.6175 29.8142 11.6175Z" stroke="white" stroke-width="0.230476" stroke-linecap="round" stroke-linejoin="round"/>
<path d="M27.4768 37.4244C26.7771 37.6871 24.2326 38.2836 23.2227 36.0742" stroke="white" stroke-width="0.230476"/>
<path d="M26.3345 43.4612C25.5781 45.0275 26.8097 46.733 26.8097 46.733C26.8097 46.733 28.8527 45.4926 29.0039 43.4579M25.927 38.3151C26.5631 37.1387 28.1617 37.8454 29.2265 37.4319M31.1017 42.9163C30.8182 42.6757 30.148 41.7898 30.0295 41.137M30.7758 46.5265C30.0212 46.1683 28.7494 44.9602 29.0191 42.194M22.835 47.0506C24.9553 46.8957 25.9745 45.5096 26.1746 45.31M23.3996 44.2088C23.95 44.2877 26.8033 44.4282 27.6874 41.3827M24.6792 41.3754C25.4665 41.2873 27.1435 40.6604 27.8349 39.5159M30.2517 37.377C29.138 36.964 28.1295 38.1326 27.787 39.7302C27.5883 40.6918 27.6201 41.8123 28.0179 42.838C30.8394 41.3357 31.8724 37.9735 30.2517 37.377ZM30.2517 37.377C31.3248 36.8926 32.5804 35.4461 32.8902 34.0868C31.0067 33.6101 30.4264 30.2959 30.4264 30.2959C30.0922 33.4032 28.7573 33.7208 28.7573 33.7208M30.2517 37.377C29.0431 36.4316 28.7573 33.7208 28.7573 33.7208M20.5896 32.5956C20.7763 36.2583 26.1022 37.2189 27.5971 36.9797C25.3236 36.4233 23.861 35.6282 23.7412 35.271C23.5586 34.5288 26.9605 34.733 27.3965 34.5316M20.1536 30.4217C19.0966 31.0652 21.5125 34.5574 23.8495 35.0022M19.629 26.907C18.5734 31.1371 24.1229 35.3106 27.3965 34.5316M27.3965 34.5316C25.9058 34.5975 22.6386 32.9971 22.8907 32.2347C23.0069 31.8843 25.9104 32.5172 26.5544 32.2259M26.5544 32.2259C25.9155 32.0286 23.1074 31.151 23.0262 30.1364C22.9838 29.5934 25.0162 29.9857 26.3446 29.5012M26.5544 32.2259C25.7998 32.0194 16.8716 29.3864 20.3163 23.388C19.4525 26.5207 22.4537 30.4374 26.3446 29.5012M26.3446 29.5012C25.8593 33.1022 28.5024 34.6519 27.4772 37.425C29.0509 37.1867 28.7573 33.7208 28.7573 33.7208M28.7573 33.7208C28.7573 33.7208 27.1592 33.7618 27.1592 29.1679M29.4326 19.1759C29.7428 19.0173 30.8551 18.3328 31.3483 16.624C31.9604 19.4298 32.8902 19.1694 32.8902 19.3902C32.8902 21.6493 29.8774 22.5376 28.5581 22.6966M28.6536 25.9325C28.6554 26.0883 28.8361 29.2504 25.8399 29.5934C25.7449 28.2022 26.8097 26.2413 26.8097 26.2413C27.1121 26.2736 30.7518 26.4409 30.7597 22.0693C30.7597 26.1386 32.7076 25.9717 32.8902 26.0431C32.8902 28.9997 30.4822 30.2959 30.4822 30.2959C30.4822 30.2959 28.6619 28.8886 28.6536 25.9325Z" stroke="white" stroke-width="0.230476" stroke-linecap="round" stroke-linejoin="round"/>
<path d="M26.1737 45.3096C25.108 46.4541 25.2121 48.4344 25.5136 49.348C26.5867 48.7363 28.0175 47.0607 28.1687 45.4857" stroke="white" stroke-width="0.230476"/>
<path d="M34.5039 36.6865C34.2569 37.5439 33.9545 38.1404 33.7715 38.4501M37.6112 45.4728C37.691 46.0771 37.4845 46.7961 37.3734 47.1142" stroke="white" stroke-width="0.230476" stroke-linecap="round" stroke-linejoin="round"/>
<path d="M38.3022 37.4244C39.002 37.6871 41.5464 38.2836 42.5559 36.0742" stroke="white" stroke-width="0.230476"/>
<path d="M39.4458 43.4612C40.2022 45.0275 38.9706 46.733 38.9706 46.733C38.9706 46.733 36.9272 45.4926 36.776 43.4579M39.8528 38.3151C39.2176 37.1387 37.6177 37.8454 36.5529 37.4319M34.6782 42.9163C34.9621 42.6757 35.6319 41.7898 35.7508 41.137M35.0041 46.5265C35.7591 46.1683 37.0304 44.9602 36.7608 42.194M42.9444 47.0506C40.8245 46.8957 39.8049 45.5096 39.6058 45.31M42.3807 44.2088C41.8299 44.2877 38.977 44.4282 38.092 41.3827M41.1002 41.3754C40.3133 41.2873 38.6364 40.6604 37.9445 39.5159M35.5282 37.377C36.6414 36.964 37.6513 38.1326 37.9924 39.7302C38.1916 40.6918 38.1593 41.8123 37.7624 42.838C34.9414 41.3357 33.9075 37.9735 35.5282 37.377ZM35.5282 37.377C34.4551 36.8926 33.1999 35.4461 32.8901 34.0868C34.7736 33.6101 35.3535 30.2959 35.3535 30.2959C35.6881 33.4032 37.0235 33.7208 37.0235 33.7208M35.5282 37.377C36.7363 36.4316 37.0235 33.7208 37.0235 33.7208M45.1902 32.5956C45.004 36.2583 39.6772 37.2189 38.1833 36.9797C40.4567 36.4233 41.9193 35.6282 42.0382 35.271C42.2217 34.5288 38.8198 34.733 38.3838 34.5316M45.6263 30.4217C46.6837 31.0652 44.2674 34.5574 41.9303 35.0022M46.1499 26.907C47.2069 31.1371 41.657 35.3106 38.3838 34.5316M38.3838 34.5316C39.874 34.5975 43.1417 32.9971 42.8891 32.2347C42.7739 31.8843 39.8699 32.5172 39.2259 32.2259M39.2259 32.2259C39.8644 32.0286 42.6729 31.151 42.7536 30.1364C42.7965 29.5934 40.7641 29.9857 39.4352 29.5012M39.2259 32.2259C39.981 32.0194 48.9092 29.3864 45.464 23.388C46.3274 26.5207 43.3252 30.4374 39.4352 29.5012M39.4352 29.5012C39.9206 33.1022 37.2779 34.6519 38.3026 37.425C36.7294 37.1867 37.0235 33.7208 37.0235 33.7208M37.0235 33.7208C37.0235 33.7208 38.6207 33.7618 38.6207 29.1679M36.3473 19.1759C36.0371 19.0173 34.9252 18.3328 34.4325 16.624C33.8194 19.4298 32.8901 19.1694 32.8901 19.3902C32.8901 21.6493 35.9025 22.5376 37.2217 22.6966M37.1258 25.9325C37.1249 26.0883 36.9442 29.2504 39.94 29.5934C40.0354 28.2022 38.9706 26.2413 38.9706 26.2413C38.6682 26.2736 35.0276 26.4409 35.0202 22.0693C35.0202 26.1386 33.0722 25.9717 32.8901 26.0431C32.8901 28.9997 35.2982 30.2959 35.2982 30.2959C35.2982 30.2959 37.1189 28.8886 37.1258 25.9325Z" stroke="white" stroke-width="0.230476" stroke-linecap="round" stroke-linejoin="round"/>
<path d="M39.6054 45.3096C40.6716 46.4541 40.5674 48.4344 40.265 49.348C39.1928 48.7363 37.762 47.0607 37.6108 45.4857" stroke="white" stroke-width="0.230476"/>
</g>
<defs>
<clipPath id="clip0_11_2">
<rect width="65" height="79" fill="white"/>
</clipPath>
</defs>
</svg>
